<?xml version="1.0" standalone="no"?>
<!DOCTYPE svg PUBLIC "-//W3C//DTD SVG 20010904//EN"
 "http://www.w3.org/TR/2001/REC-SVG-20010904/DTD/svg10.dtd">
<svg version="1.0" xmlns="http://www.w3.org/2000/svg"
 width="5440.000000pt" height="5440.000000pt" viewBox="0 0 5440.000000 5440.000000"
 preserveAspectRatio="xMidYMid meet">
<metadata>
Created by potrace 1.11, written by Peter Selinger 2001-2013
</metadata>
<g transform="translate(0.000000,5440.000000) scale(0.100000,-0.100000)"
fill="#000000" stroke="none">
<path d="M5693 31180 c-26 -14 -46 -32 -54 -53 -12 -27 -14 -691 -15 -3917 0
-3681 1 -3887 17 -3920 55 -110 232 -116 293 -10 l21 35 0 3790 0 3790 331 2
331 2 0 -3767 c0 -2866 3 -3777 12 -3810 15 -53 59 -99 103 -107 41 -7 2454 0
2522 8 45 5 75 10 136 22 14 3 39 8 55 10 40 7 186 44 205 52 8 3 22 7 31 9
64 13 419 176 427 196 2 4 8 8 14 8 20 0 189 118 298 207 47 39 237 227 280
278 34 40 142 185 155 207 6 10 28 48 51 85 23 38 65 118 93 178 29 61 59 123
67 138 8 16 14 37 14 48 0 10 5 19 12 19 6 0 9 3 5 6 -3 3 2 29 12 58 33 93
51 158 46 166 -3 5 -1 11 4 14 5 3 12 25 15 49 7 46 12 73 21 122 19 105 26
407 13 555 -12 132 -40 264 -85 410 -15 47 -27 87 -28 90 -29 93 -185 420
-215 450 -3 3 -11 16 -18 30 -7 14 -32 51 -55 82 -23 31 -49 66 -57 78 -23 34
-82 103 -146 172 -68 72 -197 188 -254 228 -19 13 -37 27 -40 31 -16 20 -328
209 -346 209 -2 0 -31 13 -64 29 -34 17 -78 35 -98 42 -20 6 -41 15 -47 19 -5
5 -27 11 -48 15 -44 9 -41 14 28 51 260 138 446 291 610 504 36 47 69 90 74
96 32 40 181 321 181 342 0 4 7 19 14 34 43 83 109 350 123 501 14 149 8 385
-13 507 -3 19 -7 45 -9 57 -2 11 -6 31 -10 43 -4 12 -9 32 -10 43 -6 37 -10
52 -18 65 -5 6 -5 12 -1 12 3 0 1 7 -6 15 -7 8 -10 15 -6 15 8 0 -73 214 -103
270 -85 159 -111 201 -187 308 -212 297 -509 531 -839 662 -147 58 -248 87
-390 111 -27 5 -63 12 -80 15 -16 4 -772 8 -1680 10 l-1650 4 -42 -20z m3365
-298 c23 -7 57 -14 75 -17 55 -8 195 -48 225 -64 12 -6 22 -10 22 -7 0 3 27
-8 59 -25 33 -16 62 -29 64 -29 22 0 228 -129 313 -196 111 -87 354 -356 354
-393 0 -5 3 -11 8 -13 19 -8 137 -245 172 -343 101 -290 112 -638 30 -935 -11
-41 -21 -80 -23 -87 -2 -7 -6 -16 -10 -19 -4 -4 -7 -16 -7 -26 0 -10 -5 -18
-11 -18 -5 0 -8 -3 -5 -8 4 -7 -43 -121 -64 -152 -6 -8 -15 -26 -22 -40 -7
-14 -40 -68 -74 -121 -92 -140 -226 -288 -334 -369 -18 -14 -38 -30 -44 -35
-54 -50 -350 -217 -381 -215 -3 0 -19 -7 -35 -15 -16 -8 -31 -15 -32 -15 -2 1
-10 -1 -18 -4 -100 -32 -185 -54 -245 -62 -16 -2 -41 -7 -55 -11 -35 -10
-2110 -16 -2111 -6 0 11 0 3125 0 3191 l1 53 1053 -4 c766 -3 1064 -7 1095
-15z m47 -3545 c44 -4 98 -9 121 -11 22 -2 65 -9 95 -15 30 -6 65 -12 79 -15
35 -5 103 -24 180 -48 84 -27 287 -113 300 -127 3 -4 23 -15 45 -25 22 -11 54
-30 72 -43 17 -13 36 -23 42 -23 6 0 11 -4 11 -10 0 -5 7 -10 15 -10 8 0 15
-4 15 -10 0 -5 5 -10 11 -10 13 0 142 -103 218 -175 57 -54 173 -182 206 -229
11 -16 29 -40 40 -55 93 -120 253 -448 280 -576 3 -11 12 -49 21 -84 9 -36 17
-78 19 -95 2 -17 4 -31 5 -31 1 0 3 -9 6 -20 25 -123 23 -486 -3 -610 -2 -11
-8 -45 -14 -75 -5 -30 -14 -69 -20 -86 -5 -17 -11 -40 -13 -50 -8 -39 -58
-180 -72 -201 -8 -13 -12 -23 -9 -23 5 0 -94 -196 -120 -239 -33 -55 -80 -127
-86 -131 -3 -3 -20 -25 -38 -50 -67 -95 -232 -260 -347 -350 -64 -50 -94 -70
-103 -70 -6 0 -11 -4 -11 -10 0 -5 -6 -10 -14 -10 -8 0 -16 -3 -18 -8 -14 -32
-395 -212 -448 -212 -9 0 -21 -5 -28 -12 -7 -7 -12 -9 -12 -5 0 4 -8 4 -17 -2
-23 -12 -206 -49 -285 -58 -35 -4 -570 -9 -1190 -10 -1075 -3 -1128 -3 -1129
14 0 23 0 3782 0 3806 1 17 48 18 1059 14 581 -2 1093 -6 1137 -10z"/>
<path d="M15738 31195 c-2 -2 -40 -6 -83 -9 -44 -2 -80 -5 -80 -6 0 -1 -16 -3
-35 -5 -76 -7 -136 -14 -155 -18 -11 -3 -40 -8 -65 -11 -25 -3 -56 -8 -70 -11
-14 -3 -58 -12 -98 -20 -84 -16 -284 -69 -352 -92 -25 -8 -52 -16 -60 -18 -25
-5 -211 -75 -256 -96 -22 -10 -44 -19 -48 -19 -15 0 -350 -167 -451 -225 -106
-60 -347 -217 -379 -247 -11 -10 -28 -20 -38 -24 -10 -3 -18 -9 -18 -13 0 -4
-21 -23 -47 -42 -27 -18 -57 -42 -68 -52 -11 -10 -33 -28 -48 -40 -65 -51
-253 -233 -352 -341 -121 -132 -128 -140 -155 -177 -14 -18 -32 -40 -40 -49
-8 -9 -19 -24 -25 -32 -11 -16 -99 -136 -112 -153 -5 -5 -23 -32 -40 -60 -18
-27 -37 -55 -42 -61 -5 -6 -16 -24 -25 -40 -9 -16 -25 -42 -36 -59 -11 -16
-23 -37 -27 -45 -3 -8 -14 -26 -23 -40 -32 -46 -165 -313 -217 -435 -53 -126
-101 -253 -128 -345 -9 -30 -21 -64 -25 -75 -7 -17 -16 -47 -25 -90 -2 -5 -9
-30 -16 -55 -7 -25 -12 -48 -11 -51 1 -4 -3 -22 -9 -40 -5 -19 -11 -45 -14
-59 -5 -28 -22 -114 -29 -145 -2 -11 -7 -42 -10 -70 -4 -27 -9 -63 -11 -80
-30 -204 -42 -479 -30 -730 8 -180 9 -194 31 -365 11 -86 13 -95 19 -130 4
-19 8 -46 10 -60 3 -14 6 -32 8 -40 2 -8 7 -33 12 -55 20 -103 77 -312 116
-430 28 -85 35 -102 59 -157 5 -13 18 -45 29 -73 32 -83 158 -354 170 -365 3
-3 20 -31 36 -63 17 -32 35 -66 40 -75 6 -9 25 -44 44 -77 19 -33 37 -62 40
-65 3 -3 33 -45 65 -95 65 -99 146 -208 158 -213 4 -2 8 -10 8 -17 0 -7 4 -15
8 -17 4 -1 29 -30 56 -63 138 -173 410 -442 571 -566 17 -13 36 -29 43 -36 7
-7 16 -13 20 -13 4 0 22 -14 40 -31 17 -16 32 -26 32 -22 0 4 4 3 8 -3 9 -14
212 -153 277 -190 28 -15 52 -31 55 -34 23 -25 408 -214 555 -272 175 -70 226
-89 245 -94 8 -2 62 -17 120 -34 124 -36 159 -45 223 -59 26 -6 66 -15 90 -21
43 -10 67 -14 146 -26 25 -4 54 -8 65 -10 10 -2 44 -6 75 -10 31 -3 65 -8 76
-10 136 -26 711 -25 910 1 17 2 57 6 89 10 32 3 62 7 65 9 3 2 29 7 56 10 48
6 72 10 125 22 14 3 39 7 55 10 17 3 55 12 85 21 30 8 66 17 80 19 27 5 108
28 180 51 25 8 50 16 55 17 6 1 15 4 20 8 6 3 26 10 45 16 54 16 151 51 195
72 72 33 170 75 175 75 3 1 48 23 100 50 52 28 97 50 100 50 3 0 33 17 68 38
35 20 67 37 73 37 5 0 9 5 9 10 0 6 6 10 14 10 8 0 21 6 28 13 7 8 25 20 38
27 24 13 212 135 238 155 7 5 22 18 33 28 10 9 19 15 19 12 0 -3 46 32 101 78
56 45 108 87 116 92 8 6 36 30 62 55 26 25 74 70 107 101 66 63 184 187 256
270 114 131 348 452 348 477 0 6 4 12 8 14 14 6 106 166 187 328 68 136 104
212 102 220 0 3 6 16 13 30 8 14 15 27 15 30 1 3 9 22 18 43 48 110 140 397
163 507 3 14 9 41 14 60 5 19 11 46 14 60 2 14 7 41 11 60 3 19 8 44 10 55 2
11 4 20 5 20 2 0 7 31 14 85 5 47 13 103 20 155 5 28 10 97 22 273 6 82 5 72
4 157 -1 39 -1 75 0 80 2 6 2 12 1 15 -1 3 -4 55 -6 115 -5 149 -14 258 -30
365 -10 64 -35 215 -40 240 -3 14 -8 41 -11 60 -14 78 -91 360 -114 415 -4 11
-18 49 -30 85 -21 65 -25 75 -53 140 -8 19 -27 64 -42 100 -34 81 -152 317
-194 388 -17 29 -31 55 -31 57 0 2 -13 23 -28 47 -158 242 -197 298 -204 298
-4 0 -8 5 -8 10 0 10 -134 183 -175 226 -11 11 -37 40 -58 65 -141 162 -422
420 -567 519 -19 14 -41 30 -47 36 -25 25 -272 184 -378 244 -60 34 -175 94
-255 132 -80 38 -158 77 -175 86 -16 9 -31 15 -33 14 -1 -1 -18 5 -38 13 -20
8 -42 15 -48 15 -7 0 -16 4 -22 9 -5 5 -38 18 -74 30 -36 12 -74 26 -85 30
-29 12 -160 51 -225 68 -166 43 -321 75 -328 69 -2 -3 -12 -1 -21 3 -9 5 -43
12 -76 16 -32 3 -62 8 -66 10 -3 3 -39 7 -80 10 -41 3 -92 8 -114 11 -49 6
-602 14 -607 9z m592 -319 c30 -4 71 -9 90 -11 102 -11 146 -17 160 -21 8 -3
33 -8 55 -11 73 -9 229 -44 345 -76 154 -43 353 -116 488 -178 34 -16 67 -29
72 -29 6 0 10 -5 10 -12 0 -6 3 -8 6 -5 4 3 45 -14 93 -40 47 -25 103 -54 123
-64 20 -11 40 -23 43 -29 3 -5 13 -10 21 -10 8 0 20 -5 27 -10 7 -6 59 -41
117 -78 120 -77 270 -184 349 -251 30 -25 66 -55 79 -66 79 -64 367 -360 432
-443 14 -18 30 -38 36 -45 36 -41 144 -188 144 -197 0 -5 4 -10 8 -10 5 0 17
-16 28 -35 10 -19 22 -35 26 -35 5 0 8 -5 8 -10 0 -6 20 -41 44 -78 76 -116
264 -472 250 -472 -3 0 1 -12 10 -27 28 -54 121 -294 124 -323 1 -5 8 -27 22
-70 19 -54 75 -288 91 -380 12 -65 15 -90 23 -150 3 -25 8 -58 10 -75 13 -96
20 -236 20 -435 0 -227 -6 -328 -28 -495 -9 -72 -28 -181 -40 -240 -4 -16 -9
-39 -11 -50 -8 -42 -14 -67 -30 -128 -9 -34 -18 -66 -19 -72 -10 -41 -54 -176
-83 -255 -33 -90 -44 -117 -77 -193 -22 -48 -38 -91 -36 -96 1 -2 -2 -7 -7
-10 -4 -3 -30 -51 -58 -105 -83 -164 -97 -191 -104 -196 -3 -3 -15 -21 -25
-40 -28 -51 -164 -257 -181 -274 -8 -8 -15 -18 -15 -23 0 -4 -14 -23 -31 -40
-16 -18 -26 -33 -22 -33 4 0 3 -4 -3 -8 -6 -4 -36 -36 -65 -72 -30 -36 -67
-81 -84 -100 -52 -61 -308 -314 -370 -365 -33 -28 -73 -62 -90 -77 -16 -16
-33 -28 -37 -28 -4 0 -13 -6 -20 -13 -54 -52 -304 -219 -448 -299 -155 -86
-442 -224 -458 -219 -1 1 -15 -5 -30 -13 -29 -15 -256 -93 -288 -99 -10 -2
-26 -7 -34 -10 -16 -6 -131 -36 -165 -43 -11 -2 -33 -7 -50 -11 -16 -4 -32 -7
-35 -8 -3 -1 -25 -5 -50 -9 -25 -5 -54 -10 -65 -12 -10 -2 -37 -6 -60 -9 -22
-3 -51 -8 -65 -10 -24 -4 -77 -10 -185 -21 -115 -12 -518 -14 -532 -3 -8 7
-13 7 -13 2 0 -6 -12 -9 -27 -7 -16 2 -57 6 -93 9 -36 3 -76 8 -90 10 -14 2
-45 6 -70 9 -43 5 -112 15 -155 21 -11 2 -20 4 -20 5 0 1 -13 4 -30 6 -16 3
-68 14 -115 25 -47 11 -94 22 -105 25 -20 4 -95 25 -165 47 -19 6 -39 12 -45
13 -11 2 -118 41 -150 54 -11 4 -45 18 -75 30 -30 13 -70 29 -87 37 -18 7 -36
14 -40 15 -11 2 -254 127 -327 167 -62 34 -231 140 -281 176 -105 76 -230 170
-244 184 -9 9 -39 34 -66 56 -166 134 -410 397 -566 610 -49 66 -92 125 -97
130 -4 6 -26 39 -47 75 -22 36 -42 67 -46 70 -3 3 -8 12 -12 20 -4 8 -18 33
-31 55 -31 49 -186 357 -205 405 -7 19 -21 53 -31 75 -36 81 -123 341 -135
400 -2 11 -4 20 -5 20 -1 0 -3 7 -5 15 -2 8 -15 67 -29 130 -25 110 -29 131
-41 218 -6 47 -13 91 -19 118 -27 130 -27 703 -1 894 3 19 8 55 11 80 5 46 11
81 14 90 1 3 2 8 1 12 -3 27 82 375 118 481 10 29 19 54 19 57 2 17 73 201 98
258 13 28 25 55 26 60 1 4 19 42 40 85 21 43 38 82 38 86 0 5 3 11 8 13 4 2
23 34 42 71 19 38 40 76 45 85 6 9 23 40 40 67 16 28 32 52 35 55 3 3 14 21
24 40 11 19 24 40 28 45 5 6 32 44 61 86 122 177 305 392 447 525 116 108 142
132 180 164 23 19 47 40 54 45 6 6 54 43 106 83 52 40 100 76 105 80 36 27
220 145 270 173 33 18 62 36 65 39 5 6 290 147 350 173 19 8 53 23 75 33 22 9
45 18 50 20 6 2 73 24 150 50 77 26 147 49 155 52 25 8 34 11 64 17 16 3 33 8
38 11 4 3 16 7 27 9 10 2 61 12 112 24 52 11 114 22 139 26 25 3 52 8 60 10 8
2 38 7 65 10 28 3 61 8 75 10 14 2 61 7 104 10 44 3 81 7 83 9 6 6 533 -1 593
-8z"/>
<path d="M21125 31190 c-28 -11 -62 -46 -80 -80 -14 -26 -15 -363 -12 -3087 1
-1682 5 -3069 9 -3083 4 -14 9 -43 12 -65 3 -22 10 -65 16 -95 6 -30 13 -66
16 -79 3 -13 9 -31 13 -40 5 -9 10 -20 10 -26 14 -111 166 -431 276 -581 16
-23 39 -55 50 -70 17 -24 41 -53 90 -111 79 -93 253 -246 365 -324 71 -49 211
-129 221 -126 4 1 15 -5 25 -14 33 -28 253 -115 369 -144 45 -12 48 -13 75
-18 14 -3 36 -8 50 -11 29 -6 73 -13 150 -24 73 -9 1158 -9 1235 1 33 4 71 9
85 12 103 20 145 30 220 53 47 14 87 27 90 27 9 3 43 17 112 46 36 16 71 29
77 29 6 0 11 3 11 8 0 4 15 13 33 21 17 8 48 23 67 35 19 11 38 20 43 18 4 -1
7 2 7 7 0 5 14 14 30 21 17 7 30 16 30 21 0 5 5 9 11 9 12 0 163 111 227 167
106 94 208 205 287 313 103 141 215 344 251 455 2 6 19 55 38 110 19 55 37
111 39 125 3 14 8 32 11 40 3 8 8 33 11 55 12 72 16 100 21 125 15 82 17 474
17 3187 l1 2991 -26 40 c-52 78 -149 94 -218 35 -21 -18 -42 -45 -48 -61 -6
-17 -10 -1115 -10 -3012 0 -2629 -3 -3073 -16 -3140 -1 -8 -6 -37 -10 -65 -21
-136 -136 -461 -168 -473 -4 -2 -8 -10 -8 -18 0 -14 -78 -144 -131 -216 -84
-117 -194 -231 -309 -322 -119 -93 -123 -96 -134 -96 -5 0 -19 -9 -30 -19 -45
-41 -344 -176 -386 -174 -3 0 -16 -4 -30 -9 -14 -5 -34 -12 -45 -14 -11 -2
-44 -9 -74 -15 -84 -17 -98 -19 -223 -23 -65 -3 -122 -7 -126 -10 -5 -3 -12
-3 -15 0 -4 5 -289 8 -313 3 -5 -1 -13 -1 -19 0 -13 2 -290 2 -301 0 -5 -1
-11 0 -14 1 -17 6 -52 5 -56 -2 -3 -4 -10 -6 -15 -2 -5 3 -49 7 -97 9 -92 4
-115 7 -227 31 -38 8 -80 17 -92 20 -12 2 -35 9 -50 15 -16 6 -37 13 -48 15
-11 2 -29 8 -40 13 -19 9 -94 42 -105 46 -71 24 -340 187 -340 206 0 4 -10 11
-21 14 -18 6 -251 231 -286 277 -41 55 -129 187 -158 240 -35 63 -75 146 -73
151 0 1 -8 20 -19 42 -28 54 -68 183 -87 280 -8 44 -18 96 -22 115 -4 19 -8
1400 -9 3067 -2 1668 -6 3044 -9 3058 -18 73 -130 125 -201 95z"/>
<path d="M26565 31188 c-105 -58 -121 -175 -33 -253 l33 -30 2508 -3 c2132 -2
2512 0 2541 12 70 29 110 123 82 190 -15 34 -57 77 -84 85 -9 3 -1144 7 -2522
8 -1813 2 -2511 -1 -2525 -9z"/>
<path d="M32600 31193 c-35 -13 -69 -45 -85 -80 -17 -35 -18 -228 -18 -3913 0
-3685 1 -3878 18 -3913 47 -99 174 -115 257 -32 14 14 28 40 32 58 3 18 5
1773 5 3901 -1 2916 -4 3875 -12 3895 -31 68 -128 110 -197 84z"/>
<path d="M37588 31195 c-2 -1 -39 -6 -83 -9 -44 -4 -98 -9 -120 -11 -22 -3
-62 -7 -90 -9 -27 -3 -50 -5 -50 -6 0 -2 -34 -9 -70 -14 -78 -12 -113 -18
-155 -28 -136 -30 -214 -49 -265 -65 -136 -41 -212 -65 -230 -72 -11 -5 -74
-30 -140 -56 -66 -26 -184 -78 -263 -116 -78 -38 -145 -69 -150 -70 -4 0 -21
-11 -39 -25 -17 -13 -35 -24 -39 -24 -3 0 -40 -20 -81 -45 -40 -25 -78 -45
-84 -45 -5 0 -12 -7 -15 -15 -4 -8 -12 -15 -18 -15 -7 0 -36 -17 -64 -37 -28
-21 -74 -54 -102 -73 -28 -19 -59 -42 -70 -51 -10 -8 -31 -24 -46 -35 -28 -20
-153 -123 -178 -146 -8 -7 -52 -47 -98 -88 -46 -41 -111 -105 -145 -141 -34
-37 -64 -64 -67 -61 -3 3 -6 1 -6 -5 0 -5 -12 -23 -26 -39 -21 -24 -119 -140
-193 -229 -9 -11 -27 -36 -41 -55 -13 -19 -27 -37 -30 -40 -13 -10 -150 -219
-150 -228 0 -6 -4 -12 -9 -14 -27 -10 -231 -402 -306 -589 -25 -63 -50 -123
-55 -134 -36 -84 -129 -399 -145 -494 -3 -19 -8 -38 -11 -43 -3 -4 -7 -22 -9
-40 -2 -18 -8 -58 -14 -88 -6 -30 -12 -66 -15 -80 -7 -39 -16 -111 -22 -171
-3 -30 -8 -74 -11 -99 -6 -58 -12 -603 -6 -613 2 -4 6 -51 9 -104 3 -53 6 -99
9 -102 2 -4 7 -38 10 -76 4 -38 9 -78 11 -90 3 -11 7 -31 10 -45 2 -14 9 -54
16 -90 7 -36 11 -68 10 -72 -1 -5 3 -8 9 -8 5 0 8 -4 5 -9 -13 -21 81 -352
157 -551 67 -173 183 -415 277 -575 29 -49 58 -100 64 -112 6 -13 14 -23 19
-23 4 0 7 -5 7 -11 0 -6 21 -41 47 -78 25 -36 67 -95 92 -131 25 -36 50 -70
55 -76 6 -7 20 -24 30 -39 11 -14 28 -36 38 -48 65 -78 88 -105 133 -155 69
-77 260 -267 326 -324 30 -26 68 -59 84 -73 40 -35 172 -137 193 -150 10 -5
19 -13 22 -16 3 -3 34 -26 70 -50 36 -24 67 -47 68 -51 2 -5 8 -8 13 -8 5 0
40 -20 79 -45 39 -25 74 -45 79 -45 5 0 11 -3 13 -7 2 -5 21 -18 43 -31 41
-23 394 -197 430 -212 11 -4 34 -13 50 -20 17 -7 62 -23 100 -37 39 -13 79
-28 90 -33 11 -5 38 -14 60 -20 22 -6 47 -14 55 -18 8 -3 20 -7 25 -8 6 -1 12
-3 15 -4 7 -2 16 -5 150 -39 63 -16 115 -30 115 -31 0 -1 11 -3 25 -5 14 -2
54 -9 90 -15 36 -7 74 -14 85 -16 169 -25 239 -33 246 -28 5 3 9 2 9 -3 0 -4
33 -10 73 -12 111 -6 616 -4 672 2 28 3 81 8 118 11 37 3 71 7 75 10 4 2 32 7
63 10 31 4 67 9 80 11 13 3 58 11 99 19 41 8 82 17 90 20 8 3 26 7 40 10 55 9
294 78 401 116 63 23 119 42 124 44 6 1 27 10 49 19 21 9 40 17 43 17 5 0 82
36 217 101 l100 49 42 -68 c24 -37 48 -72 54 -79 5 -7 10 -15 10 -18 0 -14
151 -215 200 -265 71 -73 95 -87 150 -87 74 0 133 56 147 140 2 15 1 27 -4 27
-4 0 -14 13 -21 29 -7 16 -21 39 -32 51 -11 12 -17 27 -14 31 3 5 2 9 -3 9 -4
0 -21 21 -38 48 -16 26 -33 52 -37 57 -5 6 -39 57 -78 115 -38 58 -74 112 -80
120 -6 8 -37 53 -70 100 -32 47 -63 90 -67 95 -5 6 -29 39 -53 75 -25 36 -48
67 -52 68 -5 2 -8 8 -8 13 0 6 -11 22 -25 37 -14 15 -25 32 -25 39 0 6 -4 13
-8 15 -5 2 -41 50 -81 107 -40 57 -79 111 -87 118 -8 8 -14 18 -14 22 0 4 -11
21 -25 37 -14 16 -25 32 -25 36 0 4 -6 13 -13 20 -7 7 -46 60 -87 118 -40 58
-78 107 -82 108 -4 2 -8 9 -8 15 0 7 -14 28 -30 47 -16 19 -30 38 -30 43 0 4
-8 15 -17 26 -10 10 -44 56 -77 102 -109 156 -355 504 -364 514 -5 6 -26 35
-47 65 -105 148 -146 207 -285 400 -52 72 -102 142 -110 154 -35 54 -56 82
-67 94 -7 7 -13 18 -13 23 0 16 -36 46 -70 57 -105 37 -214 -32 -214 -137 0
-38 8 -58 42 -109 23 -35 42 -65 42 -67 0 -3 59 -92 130 -195 6 -8 42 -60 80
-115 38 -55 73 -105 79 -112 6 -7 11 -17 11 -23 0 -5 5 -10 10 -10 6 0 10 -5
10 -12 0 -6 7 -18 16 -27 23 -24 204 -281 204 -291 0 -5 4 -10 8 -12 4 -1 37
-43 72 -93 35 -49 68 -91 72 -93 4 -2 8 -8 8 -12 0 -5 28 -47 63 -94 34 -47
78 -108 97 -136 19 -28 40 -56 45 -63 34 -42 115 -159 115 -167 0 -6 3 -10 8
-10 4 0 21 -20 37 -45 17 -24 33 -45 38 -45 4 0 7 -4 7 -9 0 -8 64 -99 113
-161 7 -8 28 -37 47 -65 19 -27 37 -52 40 -55 19 -17 175 -235 176 -246 1 -8
-5 -14 -15 -14 -9 0 -25 -6 -36 -14 -16 -10 -71 -33 -105 -41 -3 -1 -23 -10
-45 -20 -22 -9 -44 -18 -50 -20 -5 -1 -23 -7 -39 -14 -39 -16 -179 -61 -189
-61 -4 0 -21 -7 -37 -15 -17 -9 -30 -13 -30 -10 0 3 -8 1 -18 -4 -20 -11 -244
-72 -317 -87 -11 -2 -42 -8 -70 -14 -74 -15 -83 -17 -207 -36 -16 -2 -40 -6
-55 -8 -127 -20 -601 -28 -747 -13 -130 14 -162 18 -186 22 -14 3 -41 7 -60
10 -55 7 -157 27 -260 49 -53 12 -213 58 -277 80 -40 14 -73 23 -73 20 0 -3
-12 2 -27 10 -16 8 -57 26 -93 39 -115 44 -152 60 -315 141 -88 43 -161 83
-163 87 -2 5 -8 9 -13 9 -5 0 -46 23 -90 50 -44 28 -84 50 -89 50 -5 0 -10 3
-12 8 -1 4 -46 36 -98 71 -52 36 -97 67 -100 71 -3 3 -21 17 -40 30 -19 13
-37 27 -40 30 -6 6 -104 87 -135 110 -10 8 -94 89 -185 180 -170 169 -321 347
-431 512 -84 124 -219 349 -219 364 0 7 -3 14 -7 16 -10 4 -121 236 -167 348
-56 139 -125 349 -141 432 -3 12 -9 35 -14 52 -5 17 -14 56 -20 86 -6 30 -13
69 -17 85 -14 73 -24 134 -30 190 -4 33 -8 62 -10 66 -17 29 -25 569 -11 714
4 44 10 103 13 130 2 28 11 93 20 145 9 52 18 109 21 125 2 17 16 75 29 130
14 55 28 111 30 124 6 29 87 274 104 316 7 17 18 44 25 60 7 17 21 50 31 75
31 75 211 430 223 440 3 3 15 21 25 40 17 31 134 207 190 285 110 155 420 486
566 605 36 29 67 56 70 59 14 17 209 157 310 223 122 79 282 171 365 210 28
13 52 26 55 29 6 7 223 100 315 135 80 30 307 102 347 109 15 3 38 9 52 15 15
5 26 7 26 4 0 -4 6 -1 13 5 8 6 16 9 19 6 2 -3 20 0 39 6 19 5 51 12 72 14 21
2 41 6 45 9 4 2 36 7 72 11 36 4 69 9 74 12 4 3 31 7 60 9 28 2 85 7 126 11
94 9 539 9 641 -1 81 -8 134 -14 134 -16 0 -1 18 -3 40 -5 21 -3 53 -7 70 -10
48 -8 88 -15 115 -20 14 -3 36 -7 50 -10 89 -16 278 -68 406 -110 128 -43 215
-78 349 -141 33 -16 62 -29 65 -29 46 -7 507 -281 558 -332 7 -7 17 -13 21
-13 4 0 16 -8 27 -18 10 -9 30 -24 44 -33 21 -14 69 -53 186 -152 18 -15 128
-117 174 -160 30 -29 96 -100 198 -212 21 -23 178 -223 220 -280 29 -40 124
-189 134 -209 6 -14 15 -26 20 -26 4 0 8 -5 8 -11 0 -6 9 -24 21 -40 11 -16
17 -29 13 -29 -4 0 0 -8 8 -17 31 -35 169 -320 217 -448 29 -76 41 -105 52
-127 5 -10 9 -26 9 -36 0 -10 3 -22 8 -26 4 -4 8 -12 8 -17 1 -5 3 -11 4 -14
1 -3 3 -8 4 -12 1 -5 11 -39 23 -78 20 -64 52 -194 67 -270 4 -16 9 -41 12
-55 3 -14 7 -42 9 -63 3 -21 7 -42 9 -46 3 -4 7 -34 11 -66 4 -33 9 -76 11
-95 18 -136 25 -556 11 -705 -3 -38 -9 -98 -12 -133 -6 -74 -58 -380 -65 -389
-3 -4 -5 -12 -14 -62 -9 -48 -72 -266 -81 -281 -3 -6 -8 -18 -10 -27 -6 -29
-41 -123 -48 -130 -4 -3 -7 -13 -7 -20 0 -8 -9 -33 -19 -56 -10 -23 -30 -69
-44 -102 -42 -97 -159 -322 -176 -335 -3 -3 -7 -11 -9 -19 -2 -7 -16 -33 -32
-57 -17 -23 -30 -47 -30 -52 0 -6 -3 -12 -7 -14 -5 -1 -21 -23 -38 -48 -79
-118 -235 -316 -325 -412 l-45 -47 -185 259 c-102 143 -195 273 -207 288 -13
15 -23 30 -23 34 0 4 -6 13 -13 20 -7 7 -46 60 -87 118 -41 58 -83 114 -92
124 -10 11 -20 28 -24 38 -3 10 -10 18 -15 18 -5 0 -9 5 -9 11 0 6 -7 17 -15
26 -15 14 -87 114 -110 152 -5 9 -13 18 -16 21 -3 3 -27 37 -54 75 -27 39 -52
72 -56 75 -3 3 -17 21 -30 41 -31 48 -141 202 -149 209 -3 3 -17 23 -32 45
-39 57 -85 79 -149 72 -43 -5 -58 -13 -90 -46 -22 -22 -40 -49 -40 -60 -1 -12
-2 -27 -3 -33 -2 -12 52 -128 64 -138 3 -3 28 -41 55 -85 27 -44 53 -84 58
-90 4 -5 35 -50 67 -100 33 -49 63 -94 68 -100 4 -5 32 -46 62 -90 30 -44 68
-99 84 -123 17 -24 37 -55 44 -68 7 -13 17 -24 23 -24 5 0 9 -6 9 -13 0 -7 11
-24 25 -39 14 -15 25 -31 25 -36 0 -5 9 -20 20 -33 28 -34 30 -37 80 -109 24
-36 50 -72 57 -80 12 -15 94 -128 123 -170 14 -21 37 -50 60 -77 5 -7 10 -15
10 -18 0 -3 18 -29 40 -58 22 -29 44 -56 48 -62 21 -28 437 -601 460 -634 68
-97 178 -248 194 -265 10 -11 18 -23 18 -27 0 -4 6 -14 13 -21 7 -7 46 -60 87
-118 41 -58 77 -107 80 -110 3 -3 22 -27 41 -55 18 -27 39 -55 44 -61 6 -7 35
-47 65 -90 88 -124 108 -142 167 -150 29 -3 60 -3 70 1 10 5 23 9 29 10 17 4
58 48 72 78 17 39 15 58 -10 114 -12 26 -21 51 -20 56 1 4 -2 7 -6 7 -4 0 -16
15 -26 33 -19 32 -163 253 -178 272 -11 14 -80 109 -98 135 -29 42 -164 224
-170 230 -3 3 -17 21 -30 40 -13 19 -62 86 -107 147 -46 62 -92 127 -103 145
l-19 33 52 56 c188 201 434 532 528 709 13 25 26 47 29 50 12 11 141 272 183
370 46 109 105 266 111 297 2 10 11 36 19 58 16 39 55 178 63 219 2 12 6 30 9
41 12 49 34 153 39 185 3 19 7 44 10 55 2 11 7 43 10 70 4 28 9 64 12 80 3 17
7 48 9 70 2 22 7 74 11 115 16 156 9 719 -10 817 -3 12 -7 48 -11 80 -3 32 -8
67 -10 78 -3 11 -7 37 -10 58 -7 52 -33 184 -45 227 -5 19 -19 73 -30 120 -27
106 -78 269 -90 292 -6 10 -10 22 -10 27 0 5 -8 26 -17 47 -9 22 -17 44 -19
49 -9 45 -169 382 -247 520 -78 139 -286 451 -316 475 -4 3 -22 25 -41 50 -38
49 -53 66 -125 150 -60 69 -286 291 -350 345 -27 22 -54 46 -61 53 -7 7 -35
29 -61 49 -26 20 -54 43 -61 50 -7 7 -17 13 -20 13 -4 0 -18 10 -32 23 -42 38
-356 245 -370 243 -3 -1 -18 8 -35 20 -16 12 -59 36 -95 54 -36 19 -73 41 -84
49 -10 9 -19 15 -20 13 -2 -6 -41 11 -58 26 -10 8 -18 12 -18 8 0 -4 -17 2
-37 12 -37 20 -59 30 -158 72 -63 27 -259 101 -277 104 -7 1 -51 15 -97 30
-46 14 -91 28 -100 30 -9 1 -34 8 -56 14 -43 12 -41 12 -188 42 -156 32 -226
43 -363 56 -32 3 -77 8 -99 10 -43 6 -591 14 -597 9z"/>
<path d="M42984 31191 c-32 -14 -82 -78 -89 -113 -8 -47 0 -6094 8 -6148 4
-25 10 -56 13 -70 3 -14 8 -36 10 -50 9 -51 26 -126 35 -150 5 -14 10 -34 12
-45 5 -24 9 -35 49 -140 41 -104 115 -254 167 -335 56 -88 62 -97 91 -135 14
-18 32 -43 40 -55 30 -44 188 -208 251 -260 23 -19 58 -50 78 -67 20 -18 41
-33 48 -33 6 0 13 -4 15 -9 3 -8 127 -92 178 -120 75 -40 220 -110 255 -122
22 -7 45 -16 50 -20 8 -5 126 -42 175 -55 54 -14 198 -43 247 -50 74 -11 1178
-12 1258 -1 59 8 141 22 158 28 1 0 11 2 22 3 64 9 309 89 330 107 5 5 17 9
27 9 10 0 18 4 18 9 0 8 27 19 40 17 3 -1 19 9 37 22 17 12 34 22 37 22 7 0
130 72 136 80 3 4 16 13 30 20 71 37 232 172 334 279 28 30 58 62 68 72 60 63
218 293 218 318 0 5 4 11 9 13 25 9 159 330 187 451 1 4 3 9 4 12 3 6 4 9 13
55 4 19 10 46 13 60 3 14 7 39 10 55 3 17 7 41 10 55 2 14 7 61 11 105 9 108
9 6052 0 6088 -4 16 -23 43 -41 62 -67 67 -173 54 -226 -29 l-25 -39 -1 -2991
c-1 -2695 -3 -3068 -18 -3156 -3 -14 -7 -41 -10 -60 -3 -19 -10 -50 -15 -68
-5 -18 -10 -35 -10 -37 -1 -3 -1 -6 -2 -7 0 -2 -2 -12 -4 -23 -31 -160 -189
-465 -331 -641 -46 -57 -174 -186 -229 -229 -27 -22 -52 -42 -55 -45 -16 -16
-130 -90 -138 -90 -6 0 -12 -4 -14 -8 -8 -21 -279 -144 -368 -168 -222 -58
-267 -62 -825 -62 -581 -1 -632 3 -870 67 -135 37 -382 164 -515 264 -30 23
-64 49 -75 57 -78 58 -304 310 -350 390 -68 121 -86 152 -107 195 -14 28 -30
62 -37 78 -6 15 -15 37 -20 50 -16 38 -50 141 -55 167 -3 14 -9 40 -15 59 -6
18 -10 36 -9 40 1 3 -2 22 -6 41 -4 19 -9 58 -13 85 -3 28 -7 1407 -8 3065 -2
3330 3 3061 -65 3110 -35 25 -111 36 -146 21z"/>
<path d="M49094 31181 c-23 -10 -52 -34 -64 -52 l-24 -33 0 -3885 c1 -3735 1
-3887 19 -3921 23 -45 50 -68 94 -81 25 -7 833 -9 2528 -7 l2492 3 30 29 c17
17 31 35 31 42 0 6 6 17 14 23 8 7 13 31 13 63 0 55 -22 108 -61 141 -39 35
-54 37 -211 37 -95 -1 -152 -1 -165 -1 -8 1 -44 1 -80 0 -36 0 -72 0 -80 0 -8
1 -44 1 -80 0 -36 0 -72 0 -80 0 -8 1 -44 1 -80 0 -36 0 -72 0 -80 0 -8 1 -44
1 -80 0 -36 0 -72 0 -80 0 -8 1 -44 1 -80 0 -36 0 -72 0 -80 0 -8 1 -44 1 -80
0 -36 0 -72 0 -80 0 -8 1 -44 1 -80 0 -36 0 -72 0 -80 0 -8 1 -44 1 -80 0 -36
0 -72 0 -80 0 -8 1 -44 1 -80 0 -36 0 -72 0 -80 0 -8 1 -44 1 -80 0 -36 0 -72
0 -80 0 -8 1 -44 1 -80 0 -36 0 -72 0 -80 0 -8 1 -44 1 -80 0 -36 0 -72 0 -80
0 -8 1 -44 1 -80 0 -36 0 -72 0 -80 0 -8 1 -44 1 -80 0 -36 0 -72 0 -80 0 -8
1 -44 1 -80 0 -36 0 -72 0 -80 0 -8 1 -44 1 -80 0 -36 0 -72 0 -80 1 -8 0 -35
0 -60 0 -25 0 -52 0 -60 0 -8 0 -24 0 -35 0 -11 -1 -24 -1 -30 -1 -16 -1 -388
0 -410 1 -11 0 -29 0 -40 0 -11 -1 -24 -1 -30 -1 -16 -1 -388 0 -410 1 -11 0
-29 0 -40 0 -11 -1 -24 -1 -30 -1 -16 -1 -388 0 -410 1 -11 0 -29 0 -40 0 -24
-1 -15 -1 -187 0 -102 0 -138 4 -139 13 -1 16 -1 2885 0 2915 l1 22 1893 0
c1824 0 1894 1 1927 19 19 10 48 35 64 55 26 32 30 45 30 95 0 65 -17 99 -61
128 -26 17 -134 18 -1937 23 l-1911 5 3 50 c1 28 2 56 2 63 0 6 0 24 -1 40 0
32 9 491 10 510 1 9 381 12 1867 12 l1866 0 39 22 c22 12 39 28 39 35 0 7 4
13 9 13 14 0 28 51 26 93 -3 40 -41 98 -78 119 -17 10 -414 14 -1906 18
l-1885 5 0 1530 c-1 842 1 1540 3 1553 l3 22 2402 0 c1322 0 2406 3 2410 8 4
4 11 7 14 7 4 0 16 7 27 15 68 50 83 128 39 196 -53 81 202 74 -2582 74 -2404
0 -2488 -1 -2528 -19z"/>
<path d="M3694 30758 c-7 -18 -25 -51 -39 -73 -14 -22 -29 -49 -34 -60 -5 -11
-31 -58 -57 -105 -27 -47 -58 -103 -69 -125 -11 -22 -26 -46 -32 -53 -7 -7
-13 -20 -13 -27 0 -7 -6 -20 -12 -27 -13 -14 -21 -27 -91 -158 -22 -41 -43
-79 -47 -85 -4 -5 -21 -35 -37 -65 -17 -30 -54 -98 -84 -150 -29 -52 -60 -110
-68 -127 -8 -18 -19 -33 -23 -33 -4 0 -8 -4 -8 -10 0 -5 -30 -63 -66 -127 -37
-65 -76 -136 -87 -158 -11 -22 -23 -42 -27 -45 -4 -3 -11 -16 -15 -30 -4 -14
-11 -27 -15 -30 -4 -3 -31 -50 -60 -105 -29 -55 -64 -117 -77 -137 -12 -21
-23 -40 -23 -42 0 -3 -15 -31 -34 -63 -18 -32 -46 -80 -61 -108 -16 -27 -41
-72 -56 -100 -16 -27 -33 -61 -39 -75 -6 -13 -14 -27 -18 -30 -4 -3 -15 -21
-24 -40 -10 -19 -34 -64 -54 -100 -20 -36 -46 -83 -59 -105 -12 -22 -45 -82
-74 -134 -29 -51 -57 -103 -64 -115 -7 -11 -18 -29 -26 -38 -8 -10 -11 -18 -6
-18 4 0 2 -6 -4 -14 -6 -7 -22 -33 -35 -57 -29 -55 -67 -123 -119 -214 -22
-38 -56 -99 -75 -135 -20 -36 -46 -82 -59 -102 -13 -21 -23 -44 -23 -53 0 -8
-3 -15 -7 -15 -5 0 -26 -35 -48 -78 -22 -42 -43 -79 -46 -82 -3 -3 -25 -41
-49 -85 -59 -109 -80 -147 -132 -240 -56 -98 -118 -212 -132 -242 -6 -13 -14
-23 -18 -23 -5 0 -8 -5 -8 -10 0 -6 -21 -48 -47 -93 -25 -45 -56 -100 -68
-122 -12 -22 -31 -56 -42 -75 -11 -19 -39 -71 -63 -115 -24 -44 -56 -102 -72
-128 -15 -26 -28 -50 -28 -53 0 -3 -9 -19 -21 -35 -11 -16 -18 -29 -14 -29 3
0 1 -6 -5 -12 -6 -7 -67 -114 -135 -238 -68 -124 -129 -230 -135 -237 -5 -7
-10 -15 -10 -18 0 -4 -47 -92 -115 -214 -12 -20 -35 -61 -52 -91 -16 -30 -40
-73 -53 -95 -13 -22 -34 -60 -47 -85 -13 -25 -34 -63 -47 -85 -12 -22 -37 -67
-56 -100 -18 -33 -67 -121 -108 -195 -41 -74 -83 -148 -92 -165 -9 -16 -32
-57 -50 -90 -19 -33 -42 -76 -52 -95 -20 -38 -46 -84 -97 -173 l-32 -57 1695
0 1695 0 0 -422 c0 -233 0 -438 0 -455 l1 -33 165 0 165 0 0 418 c-1 229 -1
434 0 454 l0 37 432 1 c237 0 434 2 436 5 3 2 5 77 4 166 l0 161 -76 1 c-42 1
-76 -1 -76 -5 0 -3 -8 -4 -17 -2 -31 7 -143 9 -143 2 0 -3 -8 -4 -17 -2 -31 7
-143 9 -143 2 0 -3 -8 -4 -17 -2 -35 8 -143 9 -143 1 0 -5 -5 -5 -10 -2 -14 8
-175 9 -188 1 -6 -4 -13 -2 -17 4 -4 6 -11 8 -16 5 -5 -4 -9 6 -9 22 0 15 0
1315 0 2888 1 1573 1 2869 1 2880 0 11 0 140 -1 288 0 147 -3 267 -6 267 -3 0
-12 -15 -20 -32z m-305 -3717 l0 -2599 -47 0 c-26 0 -51 -1 -57 -2 -5 -1 -14
-1 -20 0 -23 4 -136 2 -141 -3 -3 -3 -12 -3 -19 -1 -23 9 -185 9 -185 1 0 -5
-4 -6 -9 -2 -9 5 -240 9 -266 4 -5 -1 -14 -1 -20 1 -27 5 -105 4 -105 -2 0 -3
-8 -4 -17 -2 -31 7 -143 9 -143 2 0 -3 -8 -4 -17 -2 -31 7 -143 9 -143 2 0 -3
-8 -4 -17 -2 -33 8 -143 9 -143 2 0 -4 -6 -5 -14 -2 -23 9 -226 10 -226 1 0
-5 -4 -6 -10 -2 -12 7 -259 10 -266 2 -3 -3 -12 -3 -19 -1 -23 9 -185 9 -185
1 0 -5 -4 -6 -9 -2 -12 7 -260 9 -268 2 -3 -3 -11 -3 -18 -1 -20 8 -185 10
-185 2 0 -3 -8 -4 -17 -2 -26 7 -223 10 -223 4 0 -3 -22 -3 -50 -2 -27 2 -50
6 -50 9 0 5 78 150 147 272 29 51 53 95 53 97 0 2 14 26 30 54 17 28 45 79 64
113 84 155 99 183 106 192 4 6 22 37 40 70 37 67 218 392 255 458 13 23 29 54
36 70 6 15 15 27 20 27 5 0 8 3 7 8 -2 6 31 72 57 114 5 9 36 64 68 122 32 58
62 108 68 111 5 4 7 10 4 15 -3 5 1 14 8 22 7 7 23 36 37 63 14 28 28 52 31
55 6 5 66 114 108 195 14 28 29 52 34 53 4 2 7 8 7 14 0 5 17 40 39 76 21 37
53 94 71 127 18 33 52 94 75 135 24 41 56 100 73 130 82 151 96 175 104 178 4
2 8 9 8 16 0 6 32 67 70 135 39 68 70 125 70 127 0 1 25 45 55 98 30 52 55
100 55 105 0 6 4 11 8 11 5 0 14 16 22 35 8 19 17 35 22 35 4 0 8 5 8 11 0 5
54 106 120 224 66 118 120 219 120 225 0 5 5 10 10 10 6 0 10 4 10 9 0 5 29
61 65 124 35 64 83 151 106 194 24 43 46 80 51 81 4 2 6 7 3 12 -3 5 0 14 7
22 7 7 20 27 29 43 41 75 79 144 108 195 18 30 37 66 44 80 6 14 14 27 17 30
3 3 13 21 23 40 62 117 111 206 116 210 3 3 18 28 32 55 45 86 101 188 124
225 12 19 24 43 28 53 3 9 8 17 11 17 3 0 5 -1170 5 -2599z"/>
<path d="M26650 30249 c-91 -7 -102 -12 -133 -52 -45 -60 -54 -122 -26 -183
35 -74 90 -97 224 -94 33 0 66 1 73 0 22 0 46 0 104 1 31 0 61 -1 65 -4 5 -3
15 -2 23 3 7 4 23 5 35 0 12 -5 28 -5 35 0 7 5 24 4 36 0 13 -5 26 -5 29 -1 3
5 20 6 38 2 18 -5 41 -5 52 -1 11 4 34 4 51 0 18 -4 38 -4 45 0 7 5 22 5 34 0
12 -5 28 -5 35 0 7 5 24 4 36 0 13 -5 26 -5 29 -1 3 5 20 6 38 2 18 -5 41 -5
52 -1 11 4 34 4 51 0 18 -4 38 -4 45 0 7 5 22 5 34 0 12 -5 28 -5 35 0 7 5 24
4 36 0 13 -5 26 -5 29 -1 3 5 20 6 38 2 18 -5 41 -5 52 -1 11 4 34 4 51 0 18
-4 38 -4 45 0 7 5 22 5 34 0 12 -5 28 -5 35 0 7 5 24 4 36 0 13 -5 26 -5 28
-1 3 5 20 6 38 2 18 -4 52 -4 76 -1 23 4 42 4 42 0 0 -4 18 -4 40 0 22 4 40 4
40 -1 0 -4 12 -4 28 0 15 5 36 5 47 1 11 -4 24 -5 30 -2 12 8 102 5 115 -3 6
-3 10 -1 10 5 0 6 4 8 10 5 5 -3 40 -6 77 -5 38 0 79 0 93 -1 14 0 30 -1 35 0
31 1 142 2 150 1 6 -1 19 -3 30 -4 16 -1 20 -9 22 -36 1 -19 2 -38 3 -42 4
-20 3 -79 -3 -84 -3 -3 -2 -16 3 -28 4 -13 4 -29 0 -36 -5 -8 -6 -18 -3 -24 8
-12 7 -116 -1 -123 -3 -3 -2 -13 3 -22 5 -9 5 -25 1 -36 -4 -11 -4 -29 0 -41
5 -11 5 -27 0 -34 -4 -7 -4 -25 0 -41 5 -15 6 -30 3 -33 -7 -7 -7 -136 0 -143
3 -3 2 -15 -3 -28 -5 -14 -5 -26 2 -33 6 -6 6 -12 -1 -16 -6 -4 -7 -15 -1 -30
4 -12 4 -29 0 -36 -5 -8 -6 -18 -3 -24 4 -5 5 -35 4 -65 -1 -31 -2 -62 -1 -68
0 -22 0 -46 -1 -100 -1 -28 2 -56 5 -62 4 -5 2 -12 -3 -16 -6 -3 -7 -15 -2
-28 5 -12 5 -31 1 -43 -5 -11 -4 -27 0 -34 5 -7 4 -23 0 -36 -5 -12 -6 -24 -3
-28 3 -3 5 -30 4 -61 -1 -30 -1 -62 -1 -70 0 -41 0 -55 -1 -112 0 -34 2 -66 5
-72 4 -5 2 -12 -3 -16 -7 -3 -7 -15 -1 -30 6 -15 6 -27 0 -30 -5 -3 -6 -15 0
-29 4 -12 4 -29 0 -36 -5 -8 -6 -18 -3 -24 4 -5 5 -35 4 -65 -1 -31 -2 -62 -1
-68 1 -30 1 -41 -1 -96 -1 -31 1 -60 4 -63 3 -3 2 -17 -3 -30 -6 -14 -6 -26 0
-29 5 -3 6 -15 0 -29 -4 -12 -5 -29 0 -36 4 -7 5 -23 0 -34 -4 -11 -4 -32 0
-46 3 -14 4 -36 0 -50 -4 -14 -3 -37 1 -52 4 -15 4 -30 -1 -33 -5 -3 -6 -15
-1 -28 5 -12 5 -31 1 -43 -5 -11 -4 -27 0 -34 5 -7 4 -23 0 -36 -5 -12 -6 -24
-3 -28 3 -3 5 -30 4 -61 -1 -30 -1 -62 -1 -70 0 -41 0 -55 -1 -112 0 -34 2
-66 5 -72 4 -5 2 -12 -3 -16 -7 -3 -7 -15 -1 -30 6 -15 6 -27 0 -30 -5 -3 -6
-15 0 -29 4 -12 4 -29 0 -36 -5 -8 -6 -18 -3 -24 4 -5 5 -35 4 -65 -1 -31 -2
-62 -1 -68 1 -30 1 -41 -1 -96 -1 -31 1 -60 4 -63 3 -3 2 -17 -3 -30 -6 -14
-6 -26 0 -29 5 -3 6 -15 0 -29 -4 -12 -5 -29 0 -36 5 -7 4 -23 0 -36 -5 -12
-6 -24 -3 -28 3 -3 5 -30 4 -61 -1 -30 -1 -62 -1 -70 0 -41 0 -55 -1 -112 0
-34 2 -66 5 -72 4 -5 2 -12 -3 -16 -7 -3 -7 -15 -1 -30 6 -15 6 -27 0 -30 -5
-3 -6 -15 0 -29 4 -12 4 -29 0 -36 -5 -8 -6 -18 -3 -24 8 -12 7 -116 -1 -123
-3 -3 -2 -13 3 -22 5 -9 5 -25 1 -36 -4 -11 -4 -29 0 -41 5 -11 5 -27 0 -34
-4 -7 -4 -25 0 -41 5 -15 6 -30 3 -33 -7 -7 -7 -136 0 -143 3 -3 2 -15 -3 -28
-5 -14 -5 -26 2 -33 6 -6 6 -12 -1 -16 -6 -4 -7 -15 -1 -30 4 -12 4 -29 0 -36
-5 -8 -6 -18 -3 -24 4 -5 5 -35 4 -65 -1 -31 -2 -62 -1 -68 0 -19 0 -38 -1
-140 0 -51 2 -97 6 -103 3 -5 2 -10 -4 -10 -6 0 -6 -11 -1 -30 5 -17 5 -32 0
-35 -6 -3 -5 -16 0 -29 5 -13 6 -26 3 -29 -7 -8 -6 -174 2 -186 3 -6 2 -11 -4
-11 -6 0 -6 -11 -1 -30 5 -17 5 -32 0 -35 -5 -3 -6 -16 -2 -28 5 -12 5 -38 2
-57 -3 -19 -3 -47 1 -62 4 -15 4 -30 -1 -33 -5 -3 -6 -15 -1 -28 5 -12 5 -31
1 -43 -5 -11 -4 -27 0 -34 5 -7 4 -23 0 -36 -5 -12 -6 -24 -3 -28 3 -3 5 -30
4 -61 -1 -30 -1 -62 -1 -70 0 -41 0 -55 -1 -112 0 -34 2 -66 5 -72 4 -5 2 -12
-3 -16 -7 -3 -7 -15 -1 -30 6 -15 6 -27 0 -30 -5 -3 -6 -15 0 -29 4 -12 4 -29
0 -36 -5 -8 -6 -18 -3 -24 4 -5 5 -35 4 -65 -1 -31 -2 -63 -1 -71 0 -8 1 -22
1 -30 0 -8 -1 -20 -2 -25 -2 -6 0 -33 4 -62 17 -117 156 -172 252 -98 69 52
67 39 69 537 0 246 -2 448 -6 448 -4 0 -5 7 -1 15 8 23 9 2225 1 2225 -4 0 -5
7 -1 15 8 23 9 945 1 945 -4 0 -5 7 -2 15 9 22 10 305 2 305 -4 0 -5 7 -1 15
9 24 9 945 0 945 -5 0 -5 5 -1 11 3 6 6 280 6 609 l0 598 24 5 c14 2 27 1 30
-4 2 -5 15 -4 28 1 12 4 29 4 36 0 8 -5 21 -5 31 0 9 5 19 7 22 4 3 -3 47 -5
99 -5 93 1 115 1 143 1 8 0 44 0 79 1 35 1 69 -2 75 -5 6 -4 11 -4 11 1 0 4
16 8 35 8 19 0 35 -3 35 -7 0 -4 13 -3 29 2 15 4 33 5 39 1 6 -3 42 -4 81 -1
39 3 71 2 71 -1 0 -3 18 -3 40 1 22 4 40 4 40 -1 0 -4 12 -4 28 0 15 5 36 5
47 1 11 -4 24 -5 30 -2 12 8 102 5 115 -3 6 -3 10 -1 10 5 0 6 4 8 10 5 5 -3
40 -6 77 -5 38 0 79 0 93 -1 14 0 32 0 40 0 58 3 121 2 130 -4 5 -3 10 -3 10
2 0 4 16 8 35 8 19 0 35 -3 35 -7 0 -4 13 -3 29 2 15 4 33 5 39 1 6 -3 42 -4
81 -1 39 3 71 2 71 -1 0 -3 18 -3 40 1 22 4 40 4 40 -1 0 -4 12 -4 28 0 15 5
36 5 47 1 11 -4 24 -5 29 -2 6 3 28 5 50 4 40 -2 53 -3 79 -1 6 0 41 0 77 -1
36 -1 70 -1 75 0 11 2 40 5 71 8 29 3 81 52 97 93 27 67 1 160 -57 203 l-27
21 -2467 5 c-1357 3 -2501 2 -2542 -1z"/>
</g>
</svg>
