<svg width="136" height="20" viewBox="0 0 136 20" fill="none" xmlns="http://www.w3.org/2000/svg">
<g clip-path="url(#clip0)">
<path fill-rule="evenodd" clip-rule="evenodd" d="M8.47161 20V17.725H0L9.29872 1V16.9H11.4793V17.725H9.29872V20H8.47161ZM8.47161 16.9V3.875L1.22813 16.9H8.47161ZM28.0465 14.425C28.0465 15.1917 27.9003 15.9125 27.6079 16.5875C27.3155 17.2625 26.9187 17.85 26.4174 18.35C25.9161 18.85 25.3271 19.2458 24.6504 19.5375C23.9736 19.8292 23.251 19.975 22.4823 19.975H16.9181C16.7845 19.975 16.6884 19.925 16.6299 19.825C16.5714 19.725 16.5422 19.6167 16.5422 19.5V0.75H14.888V19.625C14.888 19.7417 14.842 19.8333 14.7501 19.9C14.6582 19.9667 14.5621 20 14.4619 20C14.3616 20 14.2697 19.9625 14.1862 19.8875C14.1026 19.8125 14.0609 19.725 14.0609 19.625V0.375C14.0609 0.124999 14.1945 0 14.4619 0H22.0061C22.6745 0 23.3053 0.124999 23.8985 0.375C24.4916 0.625001 25.0054 0.970831 25.4399 1.4125C25.8743 1.85417 26.221 2.36666 26.48 2.95C26.739 3.53334 26.8685 4.15833 26.8685 4.825C26.8685 5.74167 26.6304 6.5875 26.1542 7.3625C25.678 8.1375 25.0138 8.725 24.1616 9.125C24.7297 9.30833 25.2561 9.575 25.7407 9.925C26.2252 10.275 26.6346 10.6833 26.9688 11.15C27.303 11.6167 27.5661 12.1292 27.7583 12.6875C27.9505 13.2458 28.0465 13.825 28.0465 14.425ZM26.0915 4.825C26.0915 4.25833 25.9829 3.72917 25.7657 3.2375C25.5485 2.74583 25.2561 2.31667 24.8885 1.95C24.5209 1.58333 24.0906 1.29167 23.5977 1.075C23.1048 0.858332 22.5742 0.75 22.0061 0.75H17.269V8.875H22.0061C22.5575 8.875 23.0839 8.76667 23.5852 8.55C24.0864 8.33333 24.5209 8.04167 24.8885 7.675C25.2561 7.30833 25.5485 6.87917 25.7657 6.3875C25.9829 5.89583 26.0915 5.375 26.0915 4.825ZM27.2696 14.425C27.2696 13.775 27.1442 13.1583 26.8936 12.575C26.643 11.9917 26.3004 11.4833 25.866 11.05C25.4315 10.6167 24.9219 10.275 24.3371 10.025C23.7522 9.775 23.134 9.65 22.4823 9.65C22.4155 9.65 22.3737 9.64167 22.357 9.625H17.269V19.225H22.4823C23.1507 19.225 23.7731 19.1 24.3496 18.85C24.9261 18.6 25.4315 18.2583 25.866 17.825C26.3004 17.3917 26.643 16.8833 26.8936 16.3C27.1442 15.7167 27.2696 15.0917 27.2696 14.425ZM49.9994 10C49.9994 11.3833 49.7362 12.6833 49.2099 13.9C48.6835 15.1167 47.9692 16.175 47.0669 17.075C46.1646 17.975 45.1036 18.6875 43.8838 19.2125C42.664 19.7375 41.3607 20 39.9738 20C38.587 20 37.2836 19.7375 36.0639 19.2125C34.8441 18.6875 33.783 17.975 32.8807 17.075C31.9784 16.175 31.2641 15.1167 30.7378 13.9C30.2114 12.6833 29.9483 11.3833 29.9483 10C29.9483 8.61666 30.2114 7.31667 30.7378 6.1C31.2641 4.88333 31.9784 3.825 32.8807 2.925C33.783 2.025 34.8441 1.3125 36.0639 0.7875C37.2836 0.262497 38.587 0 39.9738 0C41.3607 0 42.664 0.262497 43.8838 0.7875C45.1036 1.3125 46.1646 2.025 47.0669 2.925C47.9692 3.825 48.6835 4.88333 49.2099 6.1C49.7362 7.31667 49.9994 8.61666 49.9994 10ZM48.4956 6.425C48.011 5.30833 47.3468 4.32917 46.503 3.4875C45.6592 2.64583 44.6775 1.98334 43.558 1.5C42.4384 1.01666 41.2437 0.775 39.9738 0.775C38.7039 0.775 37.5092 1.01666 36.3897 1.5C35.2702 1.98334 34.2885 2.64583 33.4447 3.4875C32.6009 4.32917 31.9367 5.30833 31.4521 6.425C30.9675 7.54167 30.7252 8.73333 30.7252 10C30.7252 11.2667 30.9675 12.4583 31.4521 13.575C31.9367 14.6917 32.6009 15.6708 33.4447 16.5125C34.2885 17.3542 35.2702 18.0167 36.3897 18.5C37.5092 18.9833 38.7039 19.225 39.9738 19.225C41.2437 19.225 42.4384 18.9833 43.558 18.5C44.6775 18.0167 45.6592 17.3542 46.503 16.5125C47.3468 15.6708 48.011 14.6917 48.4956 13.575C48.9801 12.4583 49.2224 11.2667 49.2224 10C49.2224 8.73333 48.9801 7.54167 48.4956 6.425ZM64.3328 15.05C64.3328 15.7167 64.2075 16.35 63.9569 16.95C63.7062 17.55 63.3595 18.075 62.9167 18.525C62.4739 18.975 61.9559 19.3333 61.3628 19.6C60.7696 19.8667 60.1388 20 59.4704 20H57.5405C56.8554 20 56.2121 19.8708 55.6106 19.6125C55.0091 19.3542 54.4827 19 54.0316 18.55C53.5804 18.1 53.2253 17.575 52.9663 16.975C52.7074 16.375 52.5779 15.7333 52.5779 15.05V0.375C52.5779 0.274999 52.6154 0.1875 52.6906 0.1125C52.7658 0.0374996 52.8536 0 52.9538 0C53.0541 0 53.1418 0.0374996 53.217 0.1125C53.2922 0.1875 53.3298 0.274999 53.3298 0.375V15.05C53.3298 15.6167 53.4426 16.1542 53.6681 16.6625C53.8937 17.1708 54.1987 17.6167 54.583 18C54.9673 18.3833 55.4143 18.6875 55.9239 18.9125C56.4335 19.1375 56.9724 19.25 57.5405 19.25H59.4704C60.0386 19.25 60.5732 19.1375 61.0745 18.9125C61.5758 18.6875 62.0102 18.3833 62.3778 18C62.7455 17.6167 63.0379 17.1708 63.2551 16.6625C63.4723 16.1542 63.5809 15.6167 63.5809 15.05V0.375C63.5809 0.274999 63.6185 0.1875 63.6937 0.1125C63.7689 0.0374996 63.8566 0 63.9569 0C64.0571 0 64.1449 0.0374996 64.22 0.1125C64.2952 0.1875 64.3328 0.274999 64.3328 0.375V15.05ZM79.2678 0.375C79.2678 0.475001 79.2302 0.5625 79.155 0.6375C79.0798 0.7125 78.9921 0.75 78.8918 0.75H66.5604C66.4601 0.75 66.3724 0.7125 66.2972 0.6375C66.222 0.5625 66.1844 0.475001 66.1844 0.375C66.1844 0.274999 66.222 0.1875 66.2972 0.1125C66.3724 0.0374996 66.4601 0 66.5604 0H78.8918C78.9921 0 79.0798 0.0374996 79.155 0.1125C79.2302 0.1875 79.2678 0.274999 79.2678 0.375ZM79.3931 2.8C79.3931 2.9 79.3555 2.99167 79.2803 3.075C79.2051 3.15833 79.1174 3.2 79.0172 3.2H73.2023V19.625C73.2023 19.725 73.1606 19.8125 73.077 19.8875C72.9935 19.9625 72.9016 20 72.8013 20C72.701 20 72.6092 19.9667 72.5256 19.9C72.4421 19.8333 72.4003 19.7417 72.4003 19.625V3.2H66.5604C66.4601 3.2 66.3724 3.15833 66.2972 3.075C66.222 2.99167 66.1844 2.9 66.1844 2.8C66.1844 2.7 66.2178 2.60417 66.2847 2.5125C66.3515 2.42083 66.4434 2.375 66.5604 2.375H79.0172C79.1341 2.375 79.226 2.42083 79.2929 2.5125C79.3597 2.60417 79.3931 2.7 79.3931 2.8ZM82.0217 19.625C82.0217 19.7417 81.9799 19.8333 81.8964 19.9C81.8128 19.9667 81.7209 20 81.6207 20C81.5204 20 81.4327 19.9625 81.3575 19.8875C81.2823 19.8125 81.2447 19.725 81.2447 19.625V0.375C81.2447 0.274999 81.2823 0.1875 81.3575 0.1125C81.4327 0.0374996 81.5204 0 81.6207 0C81.7209 0 81.8128 0.033333 81.8964 0.1C81.9799 0.166667 82.0217 0.258333 82.0217 0.375V19.625ZM104.551 9.9C104.551 12.5333 103.632 14.8167 101.794 16.75C101.861 16.85 102.003 17.0458 102.22 17.3375C102.437 17.6292 102.659 17.9292 102.884 18.2375C103.11 18.5458 103.31 18.8375 103.486 19.1125C103.661 19.3875 103.749 19.5583 103.749 19.625C103.749 19.725 103.711 19.8125 103.636 19.8875C103.561 19.9625 103.473 20 103.373 20C103.223 20 103.114 19.95 103.047 19.85C102.964 19.7333 102.776 19.475 102.483 19.075C102.191 18.675 101.852 18.2083 101.468 17.675C101.084 17.1417 100.674 16.5792 100.24 15.9875C99.8056 15.3958 99.4088 14.8417 99.0495 14.325C98.6903 13.8083 98.3937 13.3708 98.1597 13.0125C97.9258 12.6542 97.8088 12.45 97.8088 12.4C97.8088 12.3 97.8464 12.2125 97.9216 12.1375C97.9968 12.0625 98.0845 12.025 98.1848 12.025C98.3352 12.025 98.4438 12.0833 98.5106 12.2L101.318 16.1C102.12 15.25 102.726 14.2958 103.135 13.2375C103.544 12.1792 103.749 11.0667 103.749 9.9C103.749 8.64999 103.507 7.47084 103.022 6.3625C102.538 5.25416 101.882 4.2875 101.055 3.4625C100.228 2.6375 99.2584 1.98334 98.1472 1.5C97.036 1.01666 95.8539 0.775 94.6007 0.775C93.3475 0.775 92.1653 1.01666 91.0541 1.5C89.9429 1.98334 88.9738 2.6375 88.1467 3.4625C87.3196 4.2875 86.6638 5.25416 86.1792 6.3625C85.6946 7.47084 85.4523 8.64999 85.4523 9.9C85.4523 11.15 85.6946 12.3292 86.1792 13.4375C86.6638 14.5458 87.3196 15.5125 88.1467 16.3375C88.9738 17.1625 89.9429 17.8167 91.0541 18.3C92.1653 18.7833 93.3475 19.025 94.6007 19.025C95.3192 19.025 96.021 18.9375 96.706 18.7625C97.3911 18.5875 98.0595 18.3583 98.7111 18.075C98.6443 17.975 98.4981 17.775 98.2725 17.475C98.047 17.175 97.788 16.8208 97.4955 16.4125C97.2031 16.0042 96.8982 15.5792 96.5807 15.1375C96.2632 14.6958 95.9666 14.2792 95.6909 13.8875C95.4152 13.4958 95.1897 13.1667 95.0142 12.9C94.8388 12.6333 94.751 12.475 94.751 12.425C94.751 12.325 94.7886 12.2333 94.8638 12.15C94.939 12.0667 95.0351 12.025 95.1521 12.025C95.3025 12.025 95.4111 12.0833 95.4779 12.2C95.528 12.2833 95.6909 12.5167 95.9666 12.9C96.2423 13.2833 96.5724 13.7458 96.9567 14.2875C97.341 14.8292 97.7504 15.4042 98.1848 16.0125C98.6192 16.6208 99.0203 17.1833 99.3879 17.7C99.7555 18.2167 100.06 18.6583 100.303 19.025C100.545 19.3917 100.666 19.5917 100.666 19.625C100.666 19.725 100.629 19.8125 100.553 19.8875C100.478 19.9625 100.39 20 100.29 20C100.19 20 100.085 19.9458 99.9769 19.8375C99.8683 19.7292 99.7638 19.6042 99.6636 19.4625C99.5633 19.3208 99.4672 19.1792 99.3753 19.0375C99.2834 18.8958 99.2124 18.7833 99.1623 18.7C98.4605 19.0667 97.7253 19.3458 96.9567 19.5375C96.188 19.7292 95.4027 19.825 94.6007 19.825C93.2138 19.825 91.9188 19.5667 90.7158 19.05C89.5127 18.5333 88.4642 17.825 87.5702 16.925C86.6763 16.025 85.9703 14.975 85.4523 13.775C84.9343 12.575 84.6753 11.2833 84.6753 9.9C84.6753 8.53333 84.9343 7.25001 85.4523 6.05C85.9703 4.84999 86.6805 3.8 87.5828 2.9C88.4851 2 89.5377 1.29167 90.7408 0.775C91.9439 0.258331 93.2305 0 94.6007 0C95.9708 0 97.2616 0.258331 98.473 0.775C99.6845 1.29167 100.741 1.99583 101.644 2.8875C102.546 3.77917 103.256 4.82916 103.774 6.0375C104.292 7.24584 104.551 8.53333 104.551 9.9ZM118.985 15.05C118.985 15.7167 118.859 16.35 118.609 16.95C118.358 17.55 118.011 18.075 117.569 18.525C117.126 18.975 116.608 19.3333 116.015 19.6C115.421 19.8667 114.791 20 114.122 20H112.192C111.507 20 110.864 19.8708 110.262 19.6125C109.661 19.3542 109.135 19 108.683 18.55C108.232 18.1 107.877 17.575 107.618 16.975C107.359 16.375 107.23 15.7333 107.23 15.05V0.375C107.23 0.274999 107.267 0.1875 107.343 0.1125C107.418 0.0374996 107.505 0 107.606 0C107.706 0 107.794 0.0374996 107.869 0.1125C107.944 0.1875 107.982 0.274999 107.982 0.375V15.05C107.982 15.6167 108.094 16.1542 108.32 16.6625C108.546 17.1708 108.851 17.6167 109.235 18C109.619 18.3833 110.066 18.6875 110.576 18.9125C111.085 19.1375 111.624 19.25 112.192 19.25H114.122C114.69 19.25 115.225 19.1375 115.726 18.9125C116.228 18.6875 116.662 18.3833 117.03 18C117.397 17.6167 117.69 17.1708 117.907 16.6625C118.124 16.1542 118.233 15.6167 118.233 15.05V0.375C118.233 0.274999 118.27 0.1875 118.346 0.1125C118.421 0.0374996 118.509 0 118.609 0C118.709 0 118.797 0.0374996 118.872 0.1125C118.947 0.1875 118.985 0.274999 118.985 0.375V15.05ZM135.574 19.575C135.574 19.675 135.54 19.7708 135.474 19.8625C135.407 19.9542 135.315 20 135.198 20H122.917C122.8 20 122.704 19.9583 122.628 19.875C122.553 19.7917 122.516 19.6917 122.516 19.575V0.375C122.516 0.258333 122.557 0.166667 122.641 0.1C122.724 0.033333 122.816 0 122.917 0H135.198C135.298 0 135.386 0.0374996 135.461 0.1125C135.536 0.1875 135.574 0.274999 135.574 0.375C135.574 0.475001 135.536 0.5625 135.461 0.6375C135.386 0.7125 135.298 0.75 135.198 0.75H123.268V8.525H132.566C132.667 8.525 132.754 8.5625 132.829 8.6375C132.905 8.7125 132.942 8.8 132.942 8.9C132.942 9 132.905 9.0875 132.829 9.1625C132.754 9.2375 132.667 9.275 132.566 9.275H123.318L123.293 10.975H132.667C132.934 10.975 133.068 11.1083 133.068 11.375C133.068 11.475 133.026 11.5667 132.942 11.65C132.859 11.7333 132.767 11.775 132.667 11.775H123.268V19.15H135.198C135.298 19.15 135.386 19.1958 135.461 19.2875C135.536 19.3792 135.574 19.475 135.574 19.575Z" fill="#C8A985"/>
<path d="M8.47161 20H8.22161V20.25H8.47161V20ZM8.47161 17.725H8.72161V17.475H8.47161V17.725ZM0 17.725L-0.2185 17.6035L-0.425035 17.975H0V17.725ZM9.29872 1H9.54872V0.0358579L9.08022 0.878519L9.29872 1ZM9.29872 16.9H9.04872V17.15H9.29872V16.9ZM11.4793 16.9H11.7293V16.65H11.4793V16.9ZM11.4793 17.725V17.975H11.7293V17.725H11.4793ZM9.29872 17.725V17.475H9.04872V17.725H9.29872ZM9.29872 20V20.25H9.54872V20H9.29872ZM8.47161 16.9V17.15H8.72161V16.9H8.47161ZM8.47161 3.875H8.72161V2.91108L8.25312 3.75349L8.47161 3.875ZM1.22813 16.9L1.00965 16.7785L0.803044 17.15H1.22813V16.9ZM16.5422 0.75H16.7922V0.5H16.5422V0.75ZM14.888 0.75V0.5H14.638V0.75H14.888ZM24.1616 9.125L24.0554 8.89869L23.4813 9.16816L24.0848 9.36292L24.1616 9.125ZM17.269 0.75V0.5H17.019V0.75H17.269ZM17.269 8.875H17.019V9.125H17.269V8.875ZM22.357 9.625L22.5336 9.448L22.4604 9.375H22.357V9.625ZM17.269 9.625V9.375H17.019V9.625H17.269ZM17.269 19.225H17.019V19.475H17.269V19.225ZM39.9738 0.775V0.525V0.775ZM79.0172 3.2V2.95V3.2ZM73.2023 3.2V2.95H72.9523V3.2H73.2023ZM72.4003 3.2H72.6503V2.95H72.4003V3.2ZM66.5604 3.2V2.95V3.2ZM101.794 16.75L101.613 16.5777L101.475 16.7227L101.586 16.8889L101.794 16.75ZM103.047 19.85L103.255 19.711L103.25 19.7044L103.047 19.85ZM98.5106 12.2L98.2937 12.3243L98.3002 12.3355L98.3077 12.346L98.5106 12.2ZM101.318 16.1L101.115 16.246L101.292 16.4918L101.5 16.2716L101.318 16.1ZM94.6007 0.775V0.525V0.775ZM98.7111 18.075L98.8108 18.3043L99.0853 18.1849L98.919 17.9361L98.7111 18.075ZM95.4779 12.2L95.2609 12.3243L95.2637 12.3289L95.4779 12.2ZM99.1623 18.7L99.3765 18.5711L99.2552 18.3694L99.0465 18.4784L99.1623 18.7ZM123.268 0.75V0.5H123.018V0.75H123.268ZM123.268 8.525H123.018V8.775H123.268V8.525ZM123.318 9.275V9.025H123.071L123.068 9.27131L123.318 9.275ZM123.293 10.975L123.043 10.9713L123.039 11.225H123.293V10.975ZM123.268 11.775V11.525H123.018V11.775H123.268ZM123.268 19.15H123.018V19.4H123.268V19.15ZM8.72161 20V17.725H8.22161V20H8.72161ZM8.47161 17.475H0V17.975H8.47161V17.475ZM0.2185 17.8465L9.51722 1.12148L9.08022 0.878519L-0.2185 17.6035L0.2185 17.8465ZM9.04872 1V16.9H9.54872V1H9.04872ZM9.29872 17.15H11.4793V16.65H9.29872V17.15ZM11.2293 16.9V17.725H11.7293V16.9H11.2293ZM11.4793 17.475H9.29872V17.975H11.4793V17.475ZM9.04872 17.725V20H9.54872V17.725H9.04872ZM9.29872 19.75H8.47161V20.25H9.29872V19.75ZM8.72161 16.9V3.875H8.22161V16.9H8.72161ZM8.25312 3.75349L1.00965 16.7785L1.44662 17.0215L8.69009 3.99651L8.25312 3.75349ZM1.22813 17.15H8.47161V16.65H1.22813V17.15ZM27.7965 14.425C27.7965 15.159 27.6568 15.8458 27.3785 16.4881L27.8373 16.6869C28.1439 15.9792 28.2965 15.2244 28.2965 14.425H27.7965ZM27.3785 16.4881C27.0982 17.1353 26.7189 17.6962 26.2408 18.173L26.5939 18.527C27.1184 18.0038 27.5328 17.3897 27.8373 16.6869L27.3785 16.4881ZM26.2408 18.173C25.7628 18.6498 25.2004 19.0282 24.5514 19.3079L24.7493 19.7671C25.4538 19.4635 26.0694 19.0502 26.5939 18.527L26.2408 18.173ZM24.5514 19.3079C23.9073 19.5855 23.2184 19.725 22.4823 19.725V20.225C23.2835 20.225 24.04 20.0728 24.7493 19.7671L24.5514 19.3079ZM22.4823 19.725H16.9181V20.225H22.4823V19.725ZM16.9181 19.725C16.8822 19.725 16.8662 19.7183 16.8612 19.7157C16.8579 19.714 16.8529 19.7111 16.8457 19.6988L16.4141 19.9512C16.5251 20.141 16.712 20.225 16.9181 20.225V19.725ZM16.8457 19.6988C16.8098 19.6374 16.7922 19.5726 16.7922 19.5H16.2922C16.2922 19.6607 16.3331 19.8126 16.4141 19.9512L16.8457 19.6988ZM16.7922 19.5V0.75H16.2922V19.5H16.7922ZM16.5422 0.5H14.888V1H16.5422V0.5ZM14.638 0.75V19.625H15.138V0.75H14.638ZM14.638 19.625C14.638 19.6642 14.6283 19.6795 14.6033 19.6976L14.8969 20.1024C15.0557 19.9872 15.138 19.8191 15.138 19.625H14.638ZM14.6033 19.6976C14.5482 19.7376 14.5026 19.75 14.4619 19.75V20.25C14.6217 20.25 14.7682 20.1957 14.8969 20.1024L14.6033 19.6976ZM14.4619 19.75C14.4308 19.75 14.3968 19.7406 14.3532 19.7015L14.0192 20.0735C14.1427 20.1844 14.2925 20.25 14.4619 20.25V19.75ZM14.3532 19.7015C14.3153 19.6674 14.3109 19.6449 14.3109 19.625H13.8109C13.8109 19.8051 13.89 19.9576 14.0192 20.0735L14.3532 19.7015ZM14.3109 19.625V0.375H13.8109V19.625H14.3109ZM14.3109 0.375C14.3109 0.334094 14.3164 0.308915 14.3214 0.294879C14.3259 0.282221 14.3301 0.278012 14.3319 0.276352C14.3349 0.273514 14.3627 0.25 14.4619 0.25V-0.25C14.2937 -0.25 14.121 -0.211014 13.9904 -0.0888525C13.8566 0.0362618 13.8109 0.207009 13.8109 0.375H14.3109ZM14.4619 0.25H22.0061V-0.25H14.4619V0.25ZM22.0061 0.25C22.6425 0.25 23.2401 0.368823 23.8014 0.605375L23.9955 0.144625C23.3705 -0.118826 22.7065 -0.25 22.0061 -0.25V0.25ZM23.8014 0.605375C24.3653 0.843069 24.8513 1.17059 25.2617 1.58781L25.6181 1.23719C25.1596 0.771069 24.6179 0.406934 23.9955 0.144625L23.8014 0.605375ZM25.2617 1.58781C25.6744 2.00743 26.0044 2.49471 26.2515 3.05145L26.7085 2.84855C26.4377 2.23862 26.0742 1.70091 25.6181 1.23719L25.2617 1.58781ZM26.2515 3.05145C26.4957 3.60142 26.6185 4.19169 26.6185 4.825H27.1185C27.1185 4.12497 26.9823 3.46525 26.7085 2.84855L26.2515 3.05145ZM26.6185 4.825C26.6185 5.69584 26.393 6.4963 25.9412 7.23162L26.3672 7.49338C26.8678 6.67869 27.1185 5.7875 27.1185 4.825H26.6185ZM25.9412 7.23162C25.4914 7.96357 24.8651 8.51864 24.0554 8.89869L24.2679 9.35131C25.1625 8.93136 25.8645 8.31143 26.3672 7.49338L25.9412 7.23162ZM24.0848 9.36292C24.628 9.53821 25.1309 9.79296 25.5943 10.1277L25.887 9.72234C25.3813 9.35703 24.8315 9.07846 24.2384 8.88708L24.0848 9.36292ZM25.5943 10.1277C26.0578 10.4625 26.4477 10.8518 26.7655 11.2956L27.172 11.0044C26.8215 10.5149 26.3926 10.0875 25.887 9.72234L25.5943 10.1277ZM26.7655 11.2956C27.0852 11.742 27.3374 12.2327 27.5219 12.7689L27.9947 12.6061C27.7949 12.0256 27.5207 11.4914 27.172 11.0044L26.7655 11.2956ZM27.5219 12.7689C27.7049 13.3006 27.7965 13.8522 27.7965 14.425H28.2965C28.2965 13.7978 28.196 13.1911 27.9947 12.6061L27.5219 12.7689ZM26.3415 4.825C26.3415 4.22546 26.2264 3.66168 25.9944 3.13647L25.537 3.33853C25.7394 3.79666 25.8415 4.2912 25.8415 4.825H26.3415ZM25.9944 3.13647C25.7651 2.61748 25.4553 2.16231 25.065 1.773L24.7119 2.127C25.0568 2.47102 25.3319 2.87418 25.537 3.33853L25.9944 3.13647ZM25.065 1.773C24.6747 1.38369 24.2185 1.07478 23.6983 0.846134L23.4971 1.30387C23.9628 1.50856 24.367 1.78298 24.7119 2.127L25.065 1.773ZM23.6983 0.846134C23.1719 0.614767 22.6069 0.5 22.0061 0.5V1C22.5416 1 23.0376 1.1019 23.4971 1.30387L23.6983 0.846134ZM22.0061 0.5H17.269V1H22.0061V0.5ZM17.019 0.75V8.875H17.519V0.75H17.019ZM17.269 9.125H22.0061V8.625H17.269V9.125ZM22.0061 9.125C22.5913 9.125 23.1514 9.00982 23.6843 8.77948L23.486 8.32052C23.0163 8.52352 22.5238 8.625 22.0061 8.625V9.125ZM23.6843 8.77948C24.213 8.551 24.674 8.24201 25.065 7.852L24.7119 7.498C24.3677 7.84133 23.9599 8.11567 23.486 8.32052L23.6843 8.77948ZM25.065 7.852C25.4553 7.46269 25.7651 7.00752 25.9944 6.48853L25.537 6.28647C25.3319 6.75082 25.0568 7.15398 24.7119 7.498L25.065 7.852ZM25.9944 6.48853C26.226 5.96428 26.3415 5.40897 26.3415 4.825H25.8415C25.8415 5.34104 25.7399 5.82738 25.537 6.28647L25.9944 6.48853ZM27.5196 14.425C27.5196 13.7419 27.3876 13.0916 27.1233 12.4763L26.6639 12.6737C26.9008 13.2251 27.0196 13.8081 27.0196 14.425H27.5196ZM27.1233 12.4763C26.8605 11.8648 26.5003 11.3296 26.0425 10.873L25.6894 11.227C26.1005 11.6371 26.4254 12.1186 26.6639 12.6737L27.1233 12.4763ZM26.0425 10.873C25.5848 10.4164 25.0483 10.0571 24.4353 9.79512L24.2388 10.2549C24.7955 10.4929 25.2783 10.8169 25.6894 11.227L26.0425 10.873ZM24.4353 9.79512C23.8187 9.53151 23.1669 9.4 22.4823 9.4V9.9C23.1011 9.9 23.6858 10.0185 24.2388 10.2549L24.4353 9.79512ZM22.4823 9.4C22.4572 9.4 22.4482 9.39826 22.4498 9.39858C22.451 9.39882 22.4596 9.40055 22.4725 9.40606C22.4849 9.41135 22.5089 9.42341 22.5336 9.448L22.1805 9.802C22.242 9.86336 22.3165 9.88184 22.352 9.88892C22.3954 9.89757 22.4406 9.9 22.4823 9.9V9.4ZM22.357 9.375H17.269V9.875H22.357V9.375ZM17.019 9.625V19.225H17.519V9.625H17.019ZM17.269 19.475H22.4823V18.975H17.269V19.475ZM22.4823 19.475C23.1827 19.475 23.8392 19.3438 24.4491 19.0794L24.2501 18.6206C23.707 18.8562 23.1187 18.975 22.4823 18.975V19.475ZM24.4491 19.0794C25.0536 18.8172 25.5854 18.458 26.0425 18.002L25.6894 17.648C25.2777 18.0587 24.7986 18.3828 24.2501 18.6206L24.4491 19.0794ZM26.0425 18.002C26.5003 17.5454 26.8605 17.0102 27.1233 16.3987L26.6639 16.2013C26.4254 16.7564 26.1005 17.2379 25.6894 17.648L26.0425 18.002ZM27.1233 16.3987C27.388 15.7826 27.5196 15.1239 27.5196 14.425H27.0196C27.0196 15.0595 26.9005 15.6507 26.6639 16.2013L27.1233 16.3987ZM49.7494 10C49.7494 11.3507 49.4926 12.6168 48.9804 13.8007L49.4393 13.9993C49.9798 12.7499 50.2494 11.416 50.2494 10H49.7494ZM48.9804 13.8007C48.4661 14.9896 47.7694 16.0212 46.8904 16.898L47.2435 17.252C48.1691 16.3288 48.9009 15.2438 49.4393 13.9993L48.9804 13.8007ZM46.8904 16.898C46.0113 17.7748 44.977 18.4698 43.785 18.9829L43.9826 19.4421C45.2302 18.9052 46.3179 18.1752 47.2435 17.252L46.8904 16.898ZM43.785 18.9829C42.5978 19.4938 41.3283 19.75 39.9738 19.75V20.25C41.3932 20.25 42.7303 19.9812 43.9826 19.4421L43.785 18.9829ZM39.9738 19.75C38.6194 19.75 37.3499 19.4938 36.1627 18.9829L35.965 19.4421C37.2174 19.9812 38.5545 20.25 39.9738 20.25V19.75ZM36.1627 18.9829C34.9707 18.4698 33.9363 17.7748 33.0573 16.898L32.7042 17.252C33.6298 18.1752 34.7175 18.9052 35.965 19.4421L36.1627 18.9829ZM33.0573 16.898C32.1783 16.0212 31.4815 14.9896 30.9672 13.8007L30.5083 13.9993C31.0467 15.2438 31.7786 16.3288 32.7042 17.252L33.0573 16.898ZM30.9672 13.8007C30.455 12.6168 30.1983 11.3507 30.1983 10H29.6983C29.6983 11.416 29.9678 12.7499 30.5083 13.9993L30.9672 13.8007ZM30.1983 10C30.1983 8.64929 30.455 7.38323 30.9672 6.19926L30.5083 6.00074C29.9678 7.25011 29.6983 8.58403 29.6983 10H30.1983ZM30.9672 6.19926C31.4815 5.01043 32.1783 3.97878 33.0573 3.102L32.7042 2.748C31.7786 3.67123 31.0467 4.75623 30.5083 6.00074L30.9672 6.19926ZM33.0573 3.102C33.9363 2.22522 34.9707 1.53019 36.1627 1.01713L35.965 0.557867C34.7175 1.09482 33.6298 1.82477 32.7042 2.748L33.0573 3.102ZM36.1627 1.01713C37.3499 0.506163 38.6194 0.25 39.9738 0.25V-0.25C38.5545 -0.25 37.2174 0.0188324 35.965 0.557867L36.1627 1.01713ZM39.9738 0.25C41.3283 0.25 42.5978 0.506162 43.785 1.01713L43.9826 0.557867C42.7303 0.0188324 41.3932 -0.25 39.9738 -0.25V0.25ZM43.785 1.01713C44.977 1.53019 46.0113 2.22522 46.8904 3.102L47.2435 2.748C46.3179 1.82477 45.2302 1.09482 43.9826 0.557867L43.785 1.01713ZM46.8904 3.102C47.7694 3.97878 48.4661 5.01043 48.9804 6.19926L49.4393 6.00074C48.9009 4.75623 48.1691 3.67123 47.2435 2.748L46.8904 3.102ZM48.9804 6.19926C49.4926 7.38323 49.7494 8.64929 49.7494 10H50.2494C50.2494 8.58403 49.9798 7.25011 49.4393 6.00074L48.9804 6.19926ZM48.7249 6.32548C48.2281 5.18051 47.5462 4.17492 46.6795 3.3105L46.3264 3.6645C47.1474 4.48342 47.7939 5.43614 48.2662 6.52452L48.7249 6.32548ZM46.6795 3.3105C45.8129 2.44608 44.8048 1.76599 43.6571 1.27048L43.4589 1.72952C44.5502 2.20068 45.5054 2.84558 46.3264 3.6645L46.6795 3.3105ZM43.6571 1.27048C42.5049 0.773073 41.2764 0.525 39.9738 0.525V1.025C41.2111 1.025 42.3719 1.26026 43.4589 1.72952L43.6571 1.27048ZM39.9738 0.525C38.6713 0.525 37.4427 0.773073 36.2906 1.27048L36.4888 1.72952C37.5757 1.26026 38.7366 1.025 39.9738 1.025V0.525ZM36.2906 1.27048C35.1429 1.76599 34.1348 2.44608 33.2681 3.3105L33.6212 3.6645C34.4422 2.84558 35.3975 2.20068 36.4888 1.72952L36.2906 1.27048ZM33.2681 3.3105C32.4015 4.17492 31.7196 5.18051 31.2228 6.32548L31.6814 6.52452C32.1537 5.43614 32.8002 4.48342 33.6212 3.6645L33.2681 3.3105ZM31.2228 6.32548C30.724 7.47484 30.4752 8.70051 30.4752 10H30.9752C30.9752 8.76615 31.211 7.60851 31.6814 6.52452L31.2228 6.32548ZM30.4752 10C30.4752 11.2995 30.724 12.5252 31.2228 13.6745L31.6814 13.4755C31.211 12.3915 30.9752 11.2339 30.9752 10H30.4752ZM31.2228 13.6745C31.7196 14.8195 32.4015 15.8251 33.2681 16.6895L33.6212 16.3355C32.8002 15.5166 32.1537 14.5639 31.6814 13.4755L31.2228 13.6745ZM33.2681 16.6895C34.1348 17.5539 35.1429 18.234 36.2906 18.7295L36.4888 18.2705C35.3975 17.7993 34.4422 17.1544 33.6212 16.3355L33.2681 16.6895ZM36.2906 18.7295C37.4427 19.2269 38.6713 19.475 39.9738 19.475V18.975C38.7366 18.975 37.5757 18.7397 36.4888 18.2705L36.2906 18.7295ZM39.9738 19.475C41.2764 19.475 42.5049 19.2269 43.6571 18.7295L43.4589 18.2705C42.3719 18.7397 41.2111 18.975 39.9738 18.975V19.475ZM43.6571 18.7295C44.8048 18.234 45.8129 17.5539 46.6795 16.6895L46.3264 16.3355C45.5054 17.1544 44.5502 17.7993 43.4589 18.2705L43.6571 18.7295ZM46.6795 16.6895C47.5462 15.8251 48.2281 14.8195 48.7249 13.6745L48.2662 13.4755C47.7939 14.5639 47.1474 15.5166 46.3264 16.3355L46.6795 16.6895ZM48.7249 13.6745C49.2237 12.5252 49.4724 11.2995 49.4724 10H48.9724C48.9724 11.2339 48.7366 12.3915 48.2662 13.4755L48.7249 13.6745ZM49.4724 10C49.4724 8.70051 49.2237 7.47484 48.7249 6.32548L48.2662 6.52452C48.7366 7.60851 48.9724 8.76615 48.9724 10H49.4724ZM64.0828 15.05C64.0828 15.6844 63.9638 16.2849 63.7262 16.8536L64.1876 17.0464C64.4513 16.4151 64.5828 15.7489 64.5828 15.05H64.0828ZM63.7262 16.8536C63.4875 17.4251 63.1583 17.9231 62.7385 18.3497L63.0949 18.7003C63.5608 18.2269 63.925 17.6749 64.1876 17.0464L63.7262 16.8536ZM62.7385 18.3497C62.3181 18.7769 61.826 19.1176 61.2603 19.372L61.4653 19.828C62.0859 19.549 62.6297 19.1731 63.0949 18.7003L62.7385 18.3497ZM61.2603 19.372C60.7002 19.6238 60.1045 19.75 59.4704 19.75V20.25C60.1731 20.25 60.8389 20.1096 61.4653 19.828L61.2603 19.372ZM59.4704 19.75H57.5405V20.25H59.4704V19.75ZM57.5405 19.75C56.8877 19.75 56.2782 19.6271 55.7092 19.3828L55.5119 19.8422C56.1461 20.1146 56.8231 20.25 57.5405 20.25V19.75ZM55.7092 19.3828C55.136 19.1366 54.6362 18.8 54.2081 18.373L53.855 18.727C54.3292 19.2 54.8821 19.5717 55.5119 19.8422L55.7092 19.3828ZM54.2081 18.373C53.78 17.946 53.4426 17.4476 53.1959 16.8759L52.7368 17.0741C53.008 17.7024 53.3808 18.254 53.855 18.727L54.2081 18.373ZM53.1959 16.8759C52.951 16.3086 52.8279 15.7008 52.8279 15.05H52.3279C52.3279 15.7658 52.4637 16.4414 52.7368 17.0741L53.1959 16.8759ZM52.8279 15.05V0.375H52.3279V15.05H52.8279ZM52.8279 0.375C52.8279 0.34585 52.8358 0.320829 52.8672 0.289502L52.5141 -0.0645023C52.3951 0.054172 52.3279 0.204149 52.3279 0.375H52.8279ZM52.8672 0.289502C52.8986 0.258171 52.924 0.25 52.9538 0.25V-0.25C52.7831 -0.25 52.6331 -0.183172 52.5141 -0.0645023L52.8672 0.289502ZM52.9538 0.25C52.9836 0.25 53.009 0.258171 53.0404 0.289502L53.3935 -0.0645023C53.2746 -0.183172 53.1245 -0.25 52.9538 -0.25V0.25ZM53.0404 0.289502C53.0718 0.320829 53.0798 0.34585 53.0798 0.375H53.5798C53.5798 0.204149 53.5125 0.054172 53.3935 -0.0645023L53.0404 0.289502ZM53.0798 0.375V15.05H53.5798V0.375H53.0798ZM53.0798 15.05C53.0798 15.6509 53.1996 16.223 53.4396 16.7639L53.8966 16.5611C53.6855 16.0853 53.5798 15.5824 53.5798 15.05H53.0798ZM53.4396 16.7639C53.6774 17.2997 53.9997 17.7713 54.4064 18.177L54.7595 17.823C54.3976 17.462 54.11 17.042 53.8966 16.5611L53.4396 16.7639ZM54.4064 18.177C54.8131 18.5827 55.2859 18.9041 55.8229 19.1412L56.0249 18.6838C55.5426 18.4709 55.1215 18.184 54.7595 17.823L54.4064 18.177ZM55.8229 19.1412C56.365 19.3805 56.9383 19.5 57.5405 19.5V19C57.0065 19 56.502 18.8945 56.0249 18.6838L55.8229 19.1412ZM57.5405 19.5H59.4704V19H57.5405V19.5ZM59.4704 19.5C60.0726 19.5 60.6423 19.3805 61.1769 19.1406L60.9722 18.6844C60.5042 18.8945 60.0045 19 59.4704 19V19.5ZM61.1769 19.1406C61.7065 18.9029 62.1677 18.5804 62.5583 18.173L62.1974 17.827C61.8528 18.1863 61.4451 18.4721 60.9722 18.6844L61.1769 19.1406ZM62.5583 18.173C62.9476 17.7671 63.2564 17.2956 63.485 16.7607L63.0252 16.5643C62.8193 17.046 62.5433 17.4663 62.1974 17.827L62.5583 18.173ZM63.485 16.7607C63.7158 16.2206 63.8309 15.6496 63.8309 15.05H63.3309C63.3309 15.5838 63.2288 16.0878 63.0252 16.5643L63.485 16.7607ZM63.8309 15.05V0.375H63.3309V15.05H63.8309ZM63.8309 0.375C63.8309 0.34585 63.8389 0.320828 63.8703 0.289502L63.5172 -0.0645023C63.3982 0.0541726 63.3309 0.204149 63.3309 0.375H63.8309ZM63.8703 0.289502C63.9017 0.258171 63.927 0.25 63.9569 0.25V-0.25C63.7862 -0.25 63.6361 -0.183172 63.5172 -0.0645023L63.8703 0.289502ZM63.9569 0.25C63.9867 0.25 64.0121 0.258171 64.0435 0.289502L64.3966 -0.0645023C64.2776 -0.183172 64.1276 -0.25 63.9569 -0.25V0.25ZM64.0435 0.289502C64.0749 0.320829 64.0828 0.345851 64.0828 0.375H64.5828C64.5828 0.204148 64.5156 0.0541714 64.3966 -0.0645023L64.0435 0.289502ZM64.0828 0.375V15.05H64.5828V0.375H64.0828ZM79.0178 0.375C79.0178 0.404149 79.0099 0.429171 78.9785 0.460498L79.3316 0.814502C79.4505 0.695829 79.5178 0.545852 79.5178 0.375H79.0178ZM78.9785 0.460498C78.9471 0.491829 78.9217 0.5 78.8918 0.5V1C79.0625 1 79.2126 0.933172 79.3316 0.814502L78.9785 0.460498ZM78.8918 0.5H66.5604V1H78.8918V0.5ZM66.5604 0.5C66.5306 0.5 66.5052 0.491829 66.4738 0.460498L66.1207 0.814502C66.2396 0.933172 66.3897 1 66.5604 1V0.5ZM66.4738 0.460498C66.4424 0.429171 66.4344 0.40415 66.4344 0.375H65.9344C65.9344 0.545851 66.0017 0.695828 66.1207 0.814502L66.4738 0.460498ZM66.4344 0.375C66.4344 0.34585 66.4424 0.320829 66.4738 0.289502L66.1207 -0.0645023C66.0017 0.054172 65.9344 0.204149 65.9344 0.375H66.4344ZM66.4738 0.289502C66.5052 0.258171 66.5306 0.25 66.5604 0.25V-0.25C66.3897 -0.25 66.2396 -0.183172 66.1207 -0.0645023L66.4738 0.289502ZM66.5604 0.25H78.8918V-0.25H66.5604V0.25ZM78.8918 0.25C78.9217 0.25 78.9471 0.258171 78.9785 0.289502L79.3316 -0.0645023C79.2126 -0.183172 79.0625 -0.25 78.8918 -0.25V0.25ZM78.9785 0.289502C79.0099 0.320829 79.0178 0.345851 79.0178 0.375H79.5178C79.5178 0.204148 79.4505 0.0541714 79.3316 -0.0645023L78.9785 0.289502ZM79.1431 2.8C79.1431 2.83044 79.1339 2.86408 79.0947 2.90752L79.4659 3.24248C79.5771 3.11926 79.6431 2.96956 79.6431 2.8H79.1431ZM79.0947 2.90752C79.0606 2.9453 79.0378 2.95 79.0172 2.95V3.45C79.1971 3.45 79.3496 3.37137 79.4659 3.24248L79.0947 2.90752ZM79.0172 2.95H73.2023V3.45H79.0172V2.95ZM72.9523 3.2V19.625H73.4523V3.2H72.9523ZM72.9523 19.625C72.9523 19.6449 72.9479 19.6674 72.91 19.7015L73.244 20.0735C73.3732 19.9576 73.4523 19.8051 73.4523 19.625H72.9523ZM72.91 19.7015C72.8664 19.7406 72.8324 19.75 72.8013 19.75V20.25C72.9707 20.25 73.1205 20.1844 73.244 20.0735L72.91 19.7015ZM72.8013 19.75C72.7616 19.75 72.7239 19.7384 72.6815 19.7046L72.3697 20.0954C72.4944 20.1949 72.6405 20.25 72.8013 20.25V19.75ZM72.6815 19.7046C72.6634 19.6901 72.6503 19.6736 72.6503 19.625H72.1503C72.1503 19.8098 72.2207 19.9766 72.3697 20.0954L72.6815 19.7046ZM72.6503 19.625V3.2H72.1503V19.625H72.6503ZM72.4003 2.95H66.5604V3.45H72.4003V2.95ZM66.5604 2.95C66.5398 2.95 66.5169 2.9453 66.4828 2.90752L66.1116 3.24248C66.2279 3.37137 66.3805 3.45 66.5604 3.45V2.95ZM66.4828 2.90752C66.4436 2.86408 66.4344 2.83044 66.4344 2.8H65.9344C65.9344 2.96956 66.0004 3.11926 66.1116 3.24248L66.4828 2.90752ZM66.4344 2.8C66.4344 2.75991 66.4467 2.71468 66.4867 2.65979L66.0827 2.36521C65.989 2.49366 65.9344 2.64009 65.9344 2.8H66.4344ZM66.4867 2.65979C66.5048 2.63499 66.5204 2.625 66.5604 2.625V2.125C66.3665 2.125 66.1983 2.20667 66.0827 2.36521L66.4867 2.65979ZM66.5604 2.625H79.0172V2.125H66.5604V2.625ZM79.0172 2.625C79.0572 2.625 79.0728 2.63499 79.0909 2.65979L79.4949 2.36521C79.3793 2.20667 79.2111 2.125 79.0172 2.125V2.625ZM79.0909 2.65979C79.1309 2.71468 79.1431 2.75991 79.1431 2.8H79.6431C79.6431 2.64009 79.5885 2.49366 79.4949 2.36521L79.0909 2.65979ZM81.7717 19.625C81.7717 19.6736 81.7586 19.6901 81.7405 19.7046L82.0523 20.0954C82.2013 19.9766 82.2717 19.8098 82.2717 19.625H81.7717ZM81.7405 19.7046C81.6981 19.7384 81.6604 19.75 81.6207 19.75V20.25C81.7815 20.25 81.9276 20.1949 82.0523 20.0954L81.7405 19.7046ZM81.6207 19.75C81.5909 19.75 81.5655 19.7418 81.5341 19.7105L81.181 20.0645C81.2999 20.1832 81.45 20.25 81.6207 20.25V19.75ZM81.5341 19.7105C81.5027 19.6792 81.4947 19.6542 81.4947 19.625H80.9947C80.9947 19.7959 81.062 19.9458 81.181 20.0645L81.5341 19.7105ZM81.4947 19.625V0.375H80.9947V19.625H81.4947ZM81.4947 0.375C81.4947 0.34585 81.5027 0.320829 81.5341 0.289502L81.181 -0.0645023C81.062 0.054172 80.9947 0.204149 80.9947 0.375H81.4947ZM81.5341 0.289502C81.5655 0.258171 81.5909 0.25 81.6207 0.25V-0.25C81.45 -0.25 81.2999 -0.183172 81.181 -0.0645023L81.5341 0.289502ZM81.6207 0.25C81.6604 0.25 81.6981 0.261578 81.7405 0.295412L82.0523 -0.0954116C81.9276 -0.194912 81.7815 -0.25 81.6207 -0.25V0.25ZM81.7405 0.295412C81.7586 0.309888 81.7717 0.326427 81.7717 0.375H82.2717C82.2717 0.190239 82.2013 0.0234455 82.0523 -0.0954116L81.7405 0.295412ZM81.7717 0.375V19.625H82.2717V0.375H81.7717ZM104.301 9.9C104.301 12.4683 103.407 14.6902 101.613 16.5777L101.975 16.9223C103.857 14.9431 104.801 12.5984 104.801 9.9H104.301ZM101.586 16.8889C101.657 16.9951 101.803 17.196 102.02 17.4868L102.421 17.1882C102.203 16.8956 102.065 16.7049 102.002 16.6111L101.586 16.8889ZM102.02 17.4868C102.236 17.7779 102.457 18.0773 102.683 18.3851L103.086 18.0899C102.86 17.781 102.638 17.4804 102.421 17.1882L102.02 17.4868ZM102.683 18.3851C102.905 18.6899 103.103 18.9771 103.275 19.247L103.697 18.978C103.518 18.6979 103.314 18.4018 103.086 18.0899L102.683 18.3851ZM103.275 19.247C103.361 19.3817 103.422 19.4857 103.461 19.5611C103.48 19.5989 103.492 19.6253 103.498 19.6421C103.506 19.6644 103.499 19.6537 103.499 19.625H103.999C103.999 19.5629 103.981 19.506 103.967 19.4688C103.951 19.4262 103.93 19.3803 103.906 19.3327C103.857 19.2372 103.786 19.1183 103.697 18.978L103.275 19.247ZM103.499 19.625C103.499 19.6542 103.491 19.6792 103.46 19.7105L103.813 20.0645C103.932 19.9458 103.999 19.7959 103.999 19.625H103.499ZM103.46 19.7105C103.428 19.7418 103.403 19.75 103.373 19.75V20.25C103.544 20.25 103.694 20.1832 103.813 20.0645L103.46 19.7105ZM103.373 19.75C103.282 19.75 103.264 19.7241 103.255 19.7111L102.839 19.9889C102.964 20.1759 103.163 20.25 103.373 20.25V19.75ZM103.25 19.7044C103.166 19.5866 102.977 19.3272 102.685 18.9275L102.281 19.2225C102.574 19.6228 102.761 19.8801 102.844 19.9956L103.25 19.7044ZM102.685 18.9275C102.393 18.528 102.055 18.0619 101.671 17.5288L101.265 17.8212C101.65 18.3548 101.989 18.822 102.281 19.2225L102.685 18.9275ZM101.671 17.5288C101.286 16.9948 100.876 16.4317 100.442 15.8395L100.039 16.1355C100.473 16.7266 100.882 17.2885 101.265 17.8212L101.671 17.5288ZM100.442 15.8395C100.008 15.2493 99.6126 14.6969 99.2548 14.1823L98.8443 14.4677C99.2049 14.9864 99.603 15.5423 100.039 16.1355L100.442 15.8395ZM99.2548 14.1823C98.8963 13.6668 98.6012 13.2314 98.3691 12.8758L97.9504 13.1492C98.1861 13.5102 98.4842 13.9499 98.8443 14.4677L99.2548 14.1823ZM98.3691 12.8758C98.253 12.698 98.1684 12.5621 98.1135 12.4664C98.0858 12.418 98.068 12.3839 98.0579 12.3619C98.0528 12.3508 98.0514 12.3465 98.0517 12.3476C98.0519 12.3483 98.0533 12.3525 98.0548 12.3596C98.0561 12.3658 98.0588 12.3803 98.0588 12.4H97.5588C97.5588 12.4468 97.5708 12.4859 97.5769 12.5044C97.5846 12.5275 97.5942 12.5503 97.6037 12.5709C97.6228 12.6124 97.6488 12.6611 97.6796 12.7149C97.7417 12.8233 97.8326 12.9686 97.9504 13.1492L98.3691 12.8758ZM98.0588 12.4C98.0588 12.3709 98.0668 12.3458 98.0982 12.3145L97.7451 11.9605C97.6261 12.0792 97.5588 12.2291 97.5588 12.4H98.0588ZM98.0982 12.3145C98.1296 12.2832 98.155 12.275 98.1848 12.275V11.775C98.0141 11.775 97.8641 11.8418 97.7451 11.9605L98.0982 12.3145ZM98.1848 12.275C98.2584 12.275 98.2775 12.2959 98.2937 12.3243L98.7276 12.0757C98.6101 11.8708 98.412 11.775 98.1848 11.775V12.275ZM98.3077 12.346L101.115 16.246L101.521 15.954L98.7135 12.054L98.3077 12.346ZM101.5 16.2716C102.323 15.3987 102.947 14.4171 103.368 13.3277L102.902 13.1473C102.504 14.1745 101.916 15.1013 101.136 15.9284L101.5 16.2716ZM103.368 13.3277C103.789 12.2398 103.999 11.0966 103.999 9.9H103.499C103.499 11.0367 103.3 12.1186 102.902 13.1473L103.368 13.3277ZM103.999 9.9C103.999 8.6167 103.75 7.40334 103.251 6.26235L102.793 6.46265C103.263 7.53834 103.499 8.68328 103.499 9.9H103.999ZM103.251 6.26235C102.755 5.12637 102.081 4.13339 101.231 3.2855L100.878 3.6395C101.682 4.44162 102.321 5.38195 102.793 6.46265L103.251 6.26235ZM101.231 3.2855C100.381 2.43761 99.3857 1.76607 98.2469 1.27075L98.0475 1.72925C99.1311 2.2006 100.074 2.83738 100.878 3.6395L101.231 3.2855ZM98.2469 1.27075C97.1032 0.773256 95.887 0.525 94.6007 0.525V1.025C95.8208 1.025 96.9689 1.26007 98.0475 1.72925L98.2469 1.27075ZM94.6007 0.525C93.3143 0.525 92.0981 0.773256 90.9544 1.27075L91.1538 1.72925C92.2325 1.26007 93.3806 1.025 94.6007 1.025V0.525ZM90.9544 1.27075C89.8157 1.76607 88.8202 2.43761 87.9701 3.2855L88.3232 3.6395C89.1274 2.83738 90.0702 2.2006 91.1538 1.72925L90.9544 1.27075ZM87.9701 3.2855C87.1201 4.13339 86.4468 5.12637 85.9501 6.26235L86.4082 6.46265C86.8807 5.38195 87.5191 4.44162 88.3232 3.6395L87.9701 3.2855ZM85.9501 6.26235C85.4513 7.40334 85.2023 8.6167 85.2023 9.9H85.7023C85.7023 8.68328 85.938 7.53834 86.4082 6.46265L85.9501 6.26235ZM85.2023 9.9C85.2023 11.1833 85.4513 12.3967 85.9501 13.5376L86.4082 13.3374C85.938 12.2617 85.7023 11.1167 85.7023 9.9H85.2023ZM85.9501 13.5376C86.4468 14.6736 87.1201 15.6666 87.9701 16.5145L88.3232 16.1605C87.5191 15.3584 86.8807 14.418 86.4082 13.3374L85.9501 13.5376ZM87.9701 16.5145C88.8202 17.3624 89.8157 18.0339 90.9544 18.5293L91.1538 18.0707C90.0702 17.5994 89.1274 16.9626 88.3232 16.1605L87.9701 16.5145ZM90.9544 18.5293C92.0981 19.0267 93.3143 19.275 94.6007 19.275V18.775C93.3806 18.775 92.2325 18.5399 91.1538 18.0707L90.9544 18.5293ZM94.6007 19.275C95.3397 19.275 96.0623 19.185 96.7679 19.0047L96.6442 18.5203C95.9796 18.69 95.2986 18.775 94.6007 18.775V19.275ZM96.7679 19.0047C97.466 18.8264 98.147 18.5929 98.8108 18.3043L98.6115 17.8457C97.972 18.1238 97.3162 18.3486 96.6442 18.5203L96.7679 19.0047ZM98.919 17.9361C98.8476 17.8293 98.6971 17.6237 98.4723 17.3248L98.0727 17.6252C98.2991 17.9263 98.441 18.1207 98.5033 18.2139L98.919 17.9361ZM98.4723 17.3248C98.2482 17.0267 97.9904 16.6742 97.6988 16.2669L97.2923 16.5581C97.5855 16.9675 97.8457 17.3233 98.0727 17.6252L98.4723 17.3248ZM97.6988 16.2669C97.4063 15.8585 97.1013 15.4334 96.7837 14.9916L96.3777 15.2834C96.6951 15.725 97 16.1499 97.2923 16.5581L97.6988 16.2669ZM96.7837 14.9916C96.4667 14.5505 96.1705 14.1345 95.8954 13.7436L95.4865 14.0314C95.7627 14.4238 96.0598 14.8412 96.3777 15.2834L96.7837 14.9916ZM95.8954 13.7436C95.6205 13.3531 95.3966 13.0263 95.2231 12.7626L94.8054 13.0374C94.9828 13.3071 95.21 13.6385 95.4865 14.0314L95.8954 13.7436ZM95.2231 12.7626C95.1366 12.6312 95.0748 12.5311 95.0355 12.4601C95.0157 12.4243 95.004 12.4002 94.9979 12.3858C94.9876 12.3614 95.001 12.3828 95.001 12.425H94.501C94.501 12.4922 94.5254 12.5522 94.5371 12.5798C94.5529 12.6175 94.5741 12.659 94.5982 12.7024C94.6466 12.7898 94.7164 12.9021 94.8054 13.0374L95.2231 12.7626ZM95.001 12.425C95.001 12.3946 95.0102 12.3609 95.0494 12.3175L94.6782 11.9825C94.567 12.1057 94.501 12.2554 94.501 12.425H95.001ZM95.0494 12.3175C95.075 12.2891 95.1025 12.275 95.1521 12.275V11.775C94.9677 11.775 94.803 11.8442 94.6782 11.9825L95.0494 12.3175ZM95.1521 12.275C95.2257 12.275 95.2447 12.2959 95.261 12.3243L95.6948 12.0757C95.5774 11.8708 95.3792 11.775 95.1521 11.775V12.275ZM95.2637 12.3289C95.3204 12.4232 95.491 12.6668 95.7637 13.046L96.1696 12.754C95.8909 12.3665 95.7356 12.1434 95.6921 12.0711L95.2637 12.3289ZM95.7637 13.046C96.039 13.4287 96.3687 13.8908 96.7528 14.4322L97.1606 14.1428C96.7761 13.6009 96.4457 13.1379 96.1696 12.754L95.7637 13.046ZM96.7528 14.4322C97.1373 14.9741 97.5468 15.5493 97.9814 16.1578L98.3883 15.8672C97.9539 15.2591 97.5447 14.6843 97.1606 14.1428L96.7528 14.4322ZM97.9814 16.1578C98.4157 16.766 98.8167 17.3284 99.1842 17.8449L99.5916 17.5551C99.2239 17.0383 98.8228 16.4756 98.3883 15.8672L97.9814 16.1578ZM99.1842 17.8449C99.5508 18.3602 99.854 18.7993 100.094 19.1628L100.511 18.8872C100.267 18.5173 99.9602 18.0732 99.5916 17.5551L99.1842 17.8449ZM100.094 19.1628C100.215 19.3453 100.303 19.4838 100.361 19.5795C100.391 19.6278 100.41 19.662 100.422 19.6839C100.427 19.6952 100.429 19.6994 100.429 19.6983C100.428 19.6978 100.426 19.6926 100.424 19.6841C100.422 19.6784 100.416 19.656 100.416 19.625H100.916C100.916 19.5671 100.896 19.5195 100.892 19.5111C100.884 19.4913 100.875 19.4714 100.865 19.4536C100.846 19.4172 100.82 19.3722 100.789 19.3205C100.726 19.2162 100.633 19.0713 100.511 18.8872L100.094 19.1628ZM100.416 19.625C100.416 19.6542 100.408 19.6792 100.377 19.7105L100.73 20.0645C100.849 19.9458 100.916 19.7959 100.916 19.625H100.416ZM100.377 19.7105C100.345 19.7418 100.32 19.75 100.29 19.75V20.25C100.461 20.25 100.611 20.1832 100.73 20.0645L100.377 19.7105ZM100.29 19.75C100.284 19.75 100.24 19.7464 100.153 19.6605L99.8003 20.0145C99.9314 20.1453 100.096 20.25 100.29 20.25V19.75ZM100.153 19.6605C100.056 19.5634 99.9607 19.4496 99.8676 19.3181L99.4595 19.6069C99.5669 19.7587 99.6804 19.8949 99.8003 20.0145L100.153 19.6605ZM99.8676 19.3181C99.7693 19.1791 99.6751 19.0402 99.5851 18.9014L99.1656 19.1736C99.2594 19.3181 99.3574 19.4626 99.4595 19.6069L99.8676 19.3181ZM99.5851 18.9014C99.4938 18.7607 99.4245 18.6509 99.3765 18.5711L98.9481 18.8289C99.0003 18.9158 99.0731 19.031 99.1656 19.1736L99.5851 18.9014ZM99.0465 18.4784C98.3623 18.8359 97.6456 19.108 96.8962 19.2949L97.0172 19.7801C97.805 19.5836 98.5587 19.2974 99.2781 18.9216L99.0465 18.4784ZM96.8962 19.2949C96.1476 19.4816 95.3826 19.575 94.6007 19.575V20.075C95.4228 20.075 96.2285 19.9767 97.0172 19.7801L96.8962 19.2949ZM94.6007 19.575C93.2457 19.575 91.9845 19.3228 90.8144 18.8203L90.6171 19.2797C91.8532 19.8105 93.1819 20.075 94.6007 20.075V19.575ZM90.8144 18.8203C89.6398 18.3158 88.6183 17.6254 87.7476 16.7488L87.3929 17.1012C88.3101 18.0246 89.3856 18.7508 90.6171 19.2797L90.8144 18.8203ZM87.7476 16.7488C86.8764 15.8717 86.1878 14.8481 85.6819 13.6759L85.2228 13.8741C85.7528 15.1019 86.4762 16.1783 87.3929 17.1012L87.7476 16.7488ZM85.6819 13.6759C85.1782 12.509 84.9253 11.2513 84.9253 9.9H84.4253C84.4253 11.3154 84.6905 12.641 85.2228 13.8741L85.6819 13.6759ZM84.9253 9.9C84.9253 8.56582 85.178 7.31637 85.6819 6.14908L85.2228 5.95092C84.6907 7.18364 84.4253 8.50084 84.4253 9.9H84.9253ZM85.6819 6.14908C86.1876 4.97741 86.88 3.95405 87.7593 3.077L87.4062 2.723C86.4809 3.64596 85.753 4.72258 85.2228 5.95092L85.6819 6.14908ZM87.7593 3.077C88.6386 2.19995 89.6646 1.50925 90.8395 1.00471L90.6422 0.545287C89.4108 1.07409 88.3315 1.80004 87.4062 2.723L87.7593 3.077ZM90.8395 1.00471C92.0099 0.502048 93.2628 0.25 94.6007 0.25V-0.25C93.1982 -0.25 91.8779 0.0146133 90.6422 0.545287L90.8395 1.00471ZM94.6007 0.25C95.9385 0.25 97.1958 0.502048 98.375 1.00496L98.5711 0.545041C97.3274 0.0146135 96.0032 -0.25 94.6007 -0.25V0.25ZM98.375 1.00496C99.5586 1.50977 100.589 2.1966 101.468 3.06532L101.819 2.70968C100.894 1.79506 99.8103 1.07357 98.5711 0.545041L98.375 1.00496ZM101.468 3.06532C102.346 3.93347 103.039 4.95624 103.544 6.136L104.004 5.939C103.474 4.70208 102.745 3.62488 101.819 2.70968L101.468 3.06532ZM103.544 6.136C104.048 7.31198 104.301 8.56582 104.301 9.9H104.801C104.801 8.50083 104.536 7.1797 104.004 5.939L103.544 6.136ZM118.735 15.05C118.735 15.6844 118.616 16.2849 118.378 16.8536L118.839 17.0464C119.103 16.4151 119.235 15.7489 119.235 15.05H118.735ZM118.378 16.8536C118.139 17.4251 117.81 17.9231 117.39 18.3497L117.747 18.7003C118.213 18.2269 118.577 17.6749 118.839 17.0464L118.378 16.8536ZM117.39 18.3497C116.97 18.7769 116.478 19.1176 115.912 19.372L116.117 19.828C116.738 19.549 117.282 19.1731 117.747 18.7003L117.39 18.3497ZM115.912 19.372C115.352 19.6238 114.756 19.75 114.122 19.75V20.25C114.825 20.25 115.491 20.1096 116.117 19.828L115.912 19.372ZM114.122 19.75H112.192V20.25H114.122V19.75ZM112.192 19.75C111.54 19.75 110.93 19.6271 110.361 19.3828L110.164 19.8422C110.798 20.1146 111.475 20.25 112.192 20.25V19.75ZM110.361 19.3828C109.788 19.1366 109.288 18.8 108.86 18.373L108.507 18.727C108.981 19.2 109.534 19.5717 110.164 19.8422L110.361 19.3828ZM108.86 18.373C108.432 17.946 108.095 17.4476 107.848 16.8759L107.389 17.0741C107.66 17.7024 108.033 18.254 108.507 18.727L108.86 18.373ZM107.848 16.8759C107.603 16.3086 107.48 15.7008 107.48 15.05H106.98C106.98 15.7658 107.116 16.4414 107.389 17.0741L107.848 16.8759ZM107.48 15.05V0.375H106.98V15.05H107.48ZM107.48 0.375C107.48 0.34585 107.488 0.320829 107.519 0.289502L107.166 -0.0645023C107.047 0.054172 106.98 0.204149 106.98 0.375H107.48ZM107.519 0.289502C107.55 0.258171 107.576 0.25 107.606 0.25V-0.25C107.435 -0.25 107.285 -0.183172 107.166 -0.0645023L107.519 0.289502ZM107.606 0.25C107.636 0.25 107.661 0.258171 107.692 0.289502L108.045 -0.0645023C107.926 -0.183172 107.776 -0.25 107.606 -0.25V0.25ZM107.692 0.289502C107.724 0.320829 107.732 0.34585 107.732 0.375H108.232C108.232 0.204149 108.164 0.054172 108.045 -0.0645023L107.692 0.289502ZM107.732 0.375V15.05H108.232V0.375H107.732ZM107.732 15.05C107.732 15.6509 107.851 16.223 108.092 16.7639L108.549 16.5611C108.337 16.0853 108.232 15.5824 108.232 15.05H107.732ZM108.092 16.7639C108.329 17.2997 108.652 17.7713 109.058 18.177L109.411 17.823C109.049 17.462 108.762 17.042 108.549 16.5611L108.092 16.7639ZM109.058 18.177C109.465 18.5827 109.938 18.9041 110.475 19.1412L110.677 18.6838C110.195 18.4709 109.773 18.184 109.411 17.823L109.058 18.177ZM110.475 19.1412C111.017 19.3805 111.59 19.5 112.192 19.5V19C111.658 19 111.154 18.8945 110.677 18.6838L110.475 19.1412ZM112.192 19.5H114.122V19H112.192V19.5ZM114.122 19.5C114.725 19.5 115.294 19.3805 115.829 19.1406L115.624 18.6844C115.156 18.8945 114.656 19 114.122 19V19.5ZM115.829 19.1406C116.358 18.9029 116.82 18.5804 117.21 18.173L116.849 17.827C116.505 18.1863 116.097 18.4721 115.624 18.6844L115.829 19.1406ZM117.21 18.173C117.599 17.7671 117.908 17.2956 118.137 16.7607L117.677 16.5643C117.471 17.046 117.195 17.4663 116.849 17.827L117.21 18.173ZM118.137 16.7607C118.368 16.2206 118.483 15.6496 118.483 15.05H117.983C117.983 15.5838 117.881 16.0878 117.677 16.5643L118.137 16.7607ZM118.483 15.05V0.375H117.983V15.05H118.483ZM118.483 0.375C118.483 0.34585 118.491 0.320828 118.522 0.289502L118.169 -0.0645023C118.05 0.0541726 117.983 0.204149 117.983 0.375H118.483ZM118.522 0.289502C118.554 0.258171 118.579 0.25 118.609 0.25V-0.25C118.438 -0.25 118.288 -0.183172 118.169 -0.0645023L118.522 0.289502ZM118.609 0.25C118.639 0.25 118.664 0.258171 118.695 0.289502L119.048 -0.0645023C118.93 -0.183172 118.779 -0.25 118.609 -0.25V0.25ZM118.695 0.289502C118.727 0.320829 118.735 0.345851 118.735 0.375H119.235C119.235 0.204148 119.167 0.0541714 119.048 -0.0645023L118.695 0.289502ZM118.735 0.375V15.05H119.235V0.375H118.735ZM135.324 19.575C135.324 19.6151 135.312 19.6603 135.272 19.7152L135.676 20.0098C135.769 19.8813 135.824 19.7349 135.824 19.575H135.324ZM135.272 19.7152C135.254 19.74 135.238 19.75 135.198 19.75V20.25C135.392 20.25 135.56 20.1683 135.676 20.0098L135.272 19.7152ZM135.198 19.75H122.917V20.25H135.198V19.75ZM122.917 19.75C122.867 19.75 122.84 19.7359 122.814 19.7075L122.443 20.0425C122.568 20.1808 122.732 20.25 122.917 20.25V19.75ZM122.814 19.7075C122.782 19.6721 122.766 19.6325 122.766 19.575H122.266C122.266 19.7509 122.324 19.9113 122.443 20.0425L122.814 19.7075ZM122.766 19.575V0.375H122.266V19.575H122.766ZM122.766 0.375C122.766 0.326427 122.779 0.309888 122.797 0.295412L122.485 -0.0954116C122.336 0.0234455 122.266 0.190239 122.266 0.375H122.766ZM122.797 0.295412C122.839 0.261578 122.877 0.25 122.917 0.25V-0.25C122.756 -0.25 122.61 -0.194912 122.485 -0.0954116L122.797 0.295412ZM122.917 0.25H135.198V-0.25H122.917V0.25ZM135.198 0.25C135.228 0.25 135.253 0.258171 135.285 0.289502L135.638 -0.0645023C135.519 -0.183172 135.369 -0.25 135.198 -0.25V0.25ZM135.285 0.289502C135.316 0.320828 135.324 0.34585 135.324 0.375H135.824C135.824 0.204149 135.757 0.0541726 135.638 -0.0645023L135.285 0.289502ZM135.324 0.375C135.324 0.40415 135.316 0.429172 135.285 0.460498L135.638 0.814502C135.757 0.695827 135.824 0.545851 135.824 0.375H135.324ZM135.285 0.460498C135.253 0.491829 135.228 0.5 135.198 0.5V1C135.369 1 135.519 0.933172 135.638 0.814502L135.285 0.460498ZM135.198 0.5H123.268V1H135.198V0.5ZM123.018 0.75V8.525H123.518V0.75H123.018ZM123.268 8.775H132.566V8.275H123.268V8.775ZM132.566 8.775C132.596 8.775 132.621 8.78317 132.653 8.8145L133.006 8.4605C132.887 8.34183 132.737 8.275 132.566 8.275V8.775ZM132.653 8.8145C132.684 8.84583 132.692 8.87085 132.692 8.9H133.192C133.192 8.72915 133.125 8.57917 133.006 8.4605L132.653 8.8145ZM132.692 8.9C132.692 8.92915 132.684 8.95417 132.653 8.9855L133.006 9.3395C133.125 9.22083 133.192 9.07085 133.192 8.9H132.692ZM132.653 8.9855C132.621 9.01683 132.596 9.025 132.566 9.025V9.525C132.737 9.525 132.887 9.45817 133.006 9.3395L132.653 8.9855ZM132.566 9.025H123.318V9.525H132.566V9.025ZM123.068 9.27131L123.043 10.9713L123.543 10.9787L123.568 9.27868L123.068 9.27131ZM123.293 11.225H132.667V10.725H123.293V11.225ZM132.667 11.225C132.762 11.225 132.787 11.2486 132.791 11.252C132.794 11.2553 132.818 11.2804 132.818 11.375H133.318C133.318 11.203 133.274 11.0281 133.144 10.898C133.014 10.7681 132.839 10.725 132.667 10.725V11.225ZM132.818 11.375C132.818 11.3967 132.811 11.4275 132.766 11.473L133.119 11.827C133.24 11.7059 133.318 11.5533 133.318 11.375H132.818ZM132.766 11.473C132.72 11.5185 132.689 11.525 132.667 11.525V12.025C132.845 12.025 132.997 11.9482 133.119 11.827L132.766 11.473ZM132.667 11.525H123.268V12.025H132.667V11.525ZM123.018 11.775V19.15H123.518V11.775H123.018ZM123.268 19.4H135.198V18.9H123.268V19.4ZM135.198 19.4C135.209 19.4 135.23 19.4005 135.268 19.4461L135.654 19.1289C135.541 18.9911 135.387 18.9 135.198 18.9V19.4ZM135.268 19.4461C135.313 19.5017 135.324 19.5431 135.324 19.575H135.824C135.824 19.4069 135.759 19.2567 135.654 19.1289L135.268 19.4461Z" fill="#C8A985"/>
</g>
<defs>
<clipPath id="clip0">
<rect width="136" height="20" fill="white"/>
</clipPath>
</defs>
</svg>
