<svg width="170" height="25" viewBox="0 0 170 25" fill="none" xmlns="http://www.w3.org/2000/svg">
<path fill-rule="evenodd" clip-rule="evenodd" d="M10.5895 25V22.1562H0L11.6234 1.25V21.125H14.3491V22.1562H11.6234V25H10.5895ZM10.5895 21.125V4.84375L1.53517 21.125H10.5895ZM35.0582 18.0312C35.0582 18.9896 34.8754 19.8906 34.5099 20.7344C34.1444 21.5781 33.6483 22.3125 33.0217 22.9375C32.3951 23.5625 31.6589 24.0573 30.813 24.4219C29.9671 24.7865 29.0637 24.9688 28.1029 24.9688H21.1477C20.9806 24.9688 20.8605 24.9062 20.7874 24.7812C20.7143 24.6562 20.6777 24.5208 20.6777 24.375V0.9375H18.61V24.5312C18.61 24.6771 18.5525 24.7917 18.4377 24.875C18.3228 24.9583 18.2027 25 18.0774 25C17.952 25 17.8372 24.9531 17.7327 24.8594C17.6283 24.7656 17.5761 24.6562 17.5761 24.5312V0.46875C17.5761 0.156248 17.7432 0 18.0774 0H27.5077C28.3431 0 29.1316 0.156248 29.8731 0.46875C30.6145 0.781252 31.2568 1.21354 31.7999 1.76562C32.3429 2.31771 32.7763 2.95833 33.1 3.6875C33.4238 4.41667 33.5857 5.19791 33.5857 6.03125C33.5857 7.17709 33.288 8.23437 32.6928 9.20312C32.0975 10.1719 31.2673 10.9062 30.202 11.4062C30.9122 11.6354 31.5701 11.9687 32.1758 12.4062C32.7815 12.8438 33.2932 13.3542 33.711 13.9375C34.1287 14.5208 34.4577 15.1615 34.6979 15.8594C34.9381 16.5573 35.0582 17.2812 35.0582 18.0312ZM32.6144 6.03125C32.6144 5.32291 32.4787 4.66146 32.2071 4.04688C31.9356 3.43229 31.5701 2.89584 31.1106 2.4375C30.6511 1.97916 30.1133 1.61458 29.4971 1.34375C28.881 1.07292 28.2178 0.9375 27.5077 0.9375H21.5863V11.0938H27.5077C28.1969 11.0938 28.8548 10.9583 29.4814 10.6875C30.108 10.4167 30.6511 10.0521 31.1106 9.59375C31.5701 9.13541 31.9356 8.59896 32.2071 7.98438C32.4787 7.36979 32.6144 6.71875 32.6144 6.03125ZM34.0869 18.0312C34.0869 17.2187 33.9303 16.4479 33.617 15.7188C33.3037 14.9896 32.8755 14.3542 32.3325 13.8125C31.7894 13.2708 31.1524 12.8438 30.4213 12.5312C29.6903 12.2187 28.9175 12.0625 28.1029 12.0625C28.0194 12.0625 27.9672 12.0521 27.9463 12.0312H21.5863V24.0312H28.1029C28.9384 24.0312 29.7164 23.875 30.437 23.5625C31.1576 23.25 31.7894 22.8229 32.3325 22.2812C32.8755 21.7396 33.3037 21.1042 33.617 20.375C33.9303 19.6458 34.0869 18.8646 34.0869 18.0312ZM62.4993 12.5C62.4993 14.2292 62.1703 15.8542 61.5124 17.375C60.8544 18.8958 59.9615 20.2187 58.8337 21.3438C57.7058 22.4688 56.3795 23.3594 54.8548 24.0156C53.33 24.6719 51.7009 25 49.9673 25C48.2337 25 46.6046 24.6719 45.0798 24.0156C43.5551 23.3594 42.2288 22.4688 41.1009 21.3438C39.973 20.2187 39.0802 18.8958 38.4222 17.375C37.7643 15.8542 37.4353 14.2292 37.4353 12.5C37.4353 10.7708 37.7643 9.14584 38.4222 7.625C39.0802 6.10416 39.973 4.78126 41.1009 3.65625C42.2288 2.53124 43.5551 1.64063 45.0798 0.984375C46.6046 0.328122 48.2337 0 49.9673 0C51.7009 0 53.33 0.328122 54.8548 0.984375C56.3795 1.64063 57.7058 2.53124 58.8337 3.65625C59.9615 4.78126 60.8544 6.10416 61.5124 7.625C62.1703 9.14584 62.4993 10.7708 62.4993 12.5ZM60.6195 8.03125C60.0137 6.63541 59.1835 5.41146 58.1287 4.35938C57.074 3.30729 55.8469 2.47917 54.4475 1.875C53.0481 1.27083 51.5547 0.96875 49.9673 0.96875C48.3799 0.96875 46.8865 1.27083 45.4871 1.875C44.0877 2.47917 42.8606 3.30729 41.8058 4.35938C40.7511 5.41146 39.9208 6.63541 39.3151 8.03125C38.7094 9.42709 38.4066 10.9167 38.4066 12.5C38.4066 14.0833 38.7094 15.5729 39.3151 16.9688C39.9208 18.3646 40.7511 19.5885 41.8058 20.6406C42.8606 21.6927 44.0877 22.5208 45.4871 23.125C46.8865 23.7292 48.3799 24.0312 49.9673 24.0312C51.5547 24.0312 53.0481 23.7292 54.4475 23.125C55.8469 22.5208 57.074 21.6927 58.1287 20.6406C59.1835 19.5885 60.0137 18.3646 60.6195 16.9688C61.2252 15.5729 61.528 14.0833 61.528 12.5C61.528 10.9167 61.2252 9.42709 60.6195 8.03125ZM80.416 18.8125C80.416 19.6458 80.2594 20.4375 79.9461 21.1875C79.6328 21.9375 79.1994 22.5937 78.6459 23.1562C78.0924 23.7188 77.4449 24.1667 76.7034 24.5C75.962 24.8333 75.1735 25 74.338 25H71.9256C71.0693 25 70.2652 24.8385 69.5132 24.5156C68.7613 24.1927 68.1034 23.75 67.5394 23.1875C66.9755 22.625 66.5317 21.9688 66.2079 21.2188C65.8842 20.4687 65.7223 19.6667 65.7223 18.8125V0.46875C65.7223 0.343749 65.7693 0.234375 65.8633 0.140625C65.9573 0.0468745 66.0669 0 66.1923 0C66.3176 0 66.4272 0.0468745 66.5212 0.140625C66.6152 0.234375 66.6622 0.343749 66.6622 0.46875V18.8125C66.6622 19.5208 66.8032 20.1927 67.0852 20.8281C67.3671 21.4635 67.7483 22.0208 68.2287 22.5C68.7091 22.9792 69.2678 23.3594 69.9049 23.6406C70.5419 23.9219 71.2155 24.0625 71.9256 24.0625H74.338C75.0482 24.0625 75.7166 23.9219 76.3432 23.6406C76.9698 23.3594 77.5128 22.9792 77.9723 22.5C78.4318 22.0208 78.7973 21.4635 79.0689 20.8281C79.3404 20.1927 79.4761 19.5208 79.4761 18.8125V0.46875C79.4761 0.343749 79.5231 0.234375 79.6171 0.140625C79.7111 0.0468745 79.8208 0 79.9461 0C80.0714 0 80.1811 0.0468745 80.2751 0.140625C80.369 0.234375 80.416 0.343749 80.416 0.46875V18.8125ZM99.0847 0.46875C99.0847 0.593751 99.0378 0.703125 98.9438 0.796875C98.8498 0.890625 98.7401 0.9375 98.6148 0.9375H83.2005C83.0752 0.9375 82.9655 0.890625 82.8715 0.796875C82.7775 0.703125 82.7305 0.593751 82.7305 0.46875C82.7305 0.343749 82.7775 0.234375 82.8715 0.140625C82.9655 0.0468745 83.0752 0 83.2005 0H98.6148C98.7401 0 98.8498 0.0468745 98.9438 0.140625C99.0378 0.234375 99.0847 0.343749 99.0847 0.46875ZM99.2414 3.5C99.2414 3.625 99.1944 3.73958 99.1004 3.84375C99.0064 3.94792 98.8968 4 98.7715 4H91.5029V24.5312C91.5029 24.6562 91.4507 24.7656 91.3463 24.8594C91.2418 24.9531 91.127 25 91.0016 25C90.8763 25 90.7614 24.9583 90.657 24.875C90.5526 24.7917 90.5004 24.6771 90.5004 24.5312V4H83.2005C83.0752 4 82.9655 3.94792 82.8715 3.84375C82.7775 3.73958 82.7305 3.625 82.7305 3.5C82.7305 3.375 82.7723 3.25521 82.8559 3.14062C82.9394 3.02604 83.0543 2.96875 83.2005 2.96875H98.7715C98.9177 2.96875 99.0325 3.02604 99.1161 3.14062C99.1996 3.25521 99.2414 3.375 99.2414 3.5ZM102.527 24.5312C102.527 24.6771 102.475 24.7917 102.37 24.875C102.266 24.9583 102.151 25 102.026 25C101.901 25 101.791 24.9531 101.697 24.8594C101.603 24.7656 101.556 24.6562 101.556 24.5312V0.46875C101.556 0.343749 101.603 0.234375 101.697 0.140625C101.791 0.0468745 101.901 0 102.026 0C102.151 0 102.266 0.0416662 102.37 0.125C102.475 0.208334 102.527 0.322916 102.527 0.46875V24.5312ZM130.689 12.375C130.689 15.6667 129.54 18.5208 127.243 20.9375C127.326 21.0625 127.504 21.3073 127.775 21.6719C128.047 22.0365 128.323 22.4115 128.605 22.7969C128.887 23.1823 129.138 23.5469 129.357 23.8906C129.577 24.2344 129.686 24.4479 129.686 24.5312C129.686 24.6562 129.639 24.7656 129.545 24.8594C129.451 24.9531 129.342 25 129.216 25C129.028 25 128.893 24.9375 128.809 24.8125C128.705 24.6667 128.47 24.3438 128.104 23.8438C127.739 23.3437 127.316 22.7604 126.835 22.0938C126.355 21.4271 125.843 20.724 125.3 19.9844C124.757 19.2448 124.261 18.5521 123.812 17.9062C123.363 17.2604 122.992 16.7135 122.7 16.2656C122.407 15.8177 122.261 15.5625 122.261 15.5C122.261 15.375 122.308 15.2656 122.402 15.1719C122.496 15.0781 122.606 15.0312 122.731 15.0312C122.919 15.0312 123.055 15.1042 123.138 15.25L126.647 20.125C127.65 19.0625 128.407 17.8698 128.919 16.5469C129.43 15.224 129.686 13.8333 129.686 12.375C129.686 10.8125 129.383 9.33855 128.778 7.95312C128.172 6.5677 127.352 5.35938 126.318 4.32812C125.284 3.29687 124.073 2.47917 122.684 1.875C121.295 1.27083 119.817 0.96875 118.251 0.96875C116.684 0.96875 115.207 1.27083 113.818 1.875C112.429 2.47917 111.217 3.29687 110.183 4.32812C109.149 5.35938 108.33 6.5677 107.724 7.95312C107.118 9.33855 106.815 10.8125 106.815 12.375C106.815 13.9375 107.118 15.4115 107.724 16.7969C108.33 18.1823 109.149 19.3906 110.183 20.4219C111.217 21.4531 112.429 22.2708 113.818 22.875C115.207 23.4792 116.684 23.7812 118.251 23.7812C119.149 23.7812 120.026 23.6719 120.883 23.4531C121.739 23.2344 122.574 22.9479 123.389 22.5938C123.305 22.4688 123.123 22.2188 122.841 21.8438C122.559 21.4687 122.235 21.026 121.869 20.5156C121.504 20.0052 121.123 19.474 120.726 18.9219C120.329 18.3698 119.958 17.849 119.614 17.3594C119.269 16.8698 118.987 16.4583 118.768 16.125C118.548 15.7917 118.439 15.5938 118.439 15.5312C118.439 15.4062 118.486 15.2917 118.58 15.1875C118.674 15.0833 118.794 15.0312 118.94 15.0312C119.128 15.0312 119.264 15.1042 119.347 15.25C119.41 15.3542 119.614 15.6458 119.958 16.125C120.303 16.6042 120.715 17.1823 121.196 17.8594C121.676 18.5365 122.188 19.2552 122.731 20.0156C123.274 20.776 123.775 21.4792 124.235 22.125C124.694 22.7708 125.076 23.3229 125.378 23.7812C125.681 24.2396 125.833 24.4896 125.833 24.5312C125.833 24.6562 125.786 24.7656 125.692 24.8594C125.598 24.9531 125.488 25 125.363 25C125.237 25 125.107 24.9323 124.971 24.7969C124.835 24.6615 124.705 24.5052 124.579 24.3281C124.454 24.151 124.334 23.974 124.219 23.7969C124.104 23.6198 124.016 23.4792 123.953 23.375C123.076 23.8333 122.157 24.1823 121.196 24.4219C120.235 24.6615 119.253 24.7812 118.251 24.7812C116.517 24.7812 114.899 24.4583 113.395 23.8125C111.891 23.1667 110.58 22.2813 109.463 21.1562C108.345 20.0312 107.463 18.7188 106.815 17.2188C106.168 15.7187 105.844 14.1042 105.844 12.375C105.844 10.6667 106.168 9.06251 106.815 7.5625C107.463 6.06249 108.351 4.75001 109.478 3.625C110.606 2.49999 111.922 1.61459 113.426 0.96875C114.93 0.322913 116.538 0 118.251 0C119.964 0 121.577 0.322913 123.091 0.96875C124.606 1.61459 125.927 2.49479 127.055 3.60938C128.182 4.72396 129.07 6.03645 129.718 7.54688C130.365 9.0573 130.689 10.6667 130.689 12.375ZM148.731 18.8125C148.731 19.6458 148.574 20.4375 148.261 21.1875C147.948 21.9375 147.514 22.5937 146.961 23.1562C146.407 23.7188 145.76 24.1667 145.018 24.5C144.277 24.8333 143.488 25 142.653 25H140.241C139.384 25 138.58 24.8385 137.828 24.5156C137.076 24.1927 136.418 23.75 135.854 23.1875C135.29 22.625 134.847 21.9688 134.523 21.2188C134.199 20.4687 134.037 19.6667 134.037 18.8125V0.46875C134.037 0.343749 134.084 0.234375 134.178 0.140625C134.272 0.0468745 134.382 0 134.507 0C134.632 0 134.742 0.0468745 134.836 0.140625C134.93 0.234375 134.977 0.343749 134.977 0.46875V18.8125C134.977 19.5208 135.118 20.1927 135.4 20.8281C135.682 21.4635 136.063 22.0208 136.544 22.5C137.024 22.9792 137.583 23.3594 138.22 23.6406C138.857 23.9219 139.53 24.0625 140.241 24.0625H142.653C143.363 24.0625 144.031 23.9219 144.658 23.6406C145.285 23.3594 145.828 22.9792 146.287 22.5C146.747 22.0208 147.112 21.4635 147.384 20.8281C147.655 20.1927 147.791 19.5208 147.791 18.8125V0.46875C147.791 0.343749 147.838 0.234375 147.932 0.140625C148.026 0.0468745 148.136 0 148.261 0C148.386 0 148.496 0.0468745 148.59 0.140625C148.684 0.234375 148.731 0.343749 148.731 0.46875V18.8125ZM169.467 24.4688C169.467 24.5938 169.426 24.7135 169.342 24.8281C169.259 24.9427 169.144 25 168.997 25H153.646C153.5 25 153.379 24.9479 153.286 24.8438C153.192 24.7396 153.145 24.6146 153.145 24.4688V0.46875C153.145 0.322916 153.197 0.208334 153.301 0.125C153.406 0.0416662 153.52 0 153.646 0H168.997C169.123 0 169.232 0.0468745 169.326 0.140625C169.42 0.234375 169.467 0.343749 169.467 0.46875C169.467 0.593751 169.42 0.703125 169.326 0.796875C169.232 0.890625 169.123 0.9375 168.997 0.9375H154.084V10.6562H165.708C165.833 10.6562 165.943 10.7031 166.037 10.7969C166.131 10.8906 166.178 11 166.178 11.125C166.178 11.25 166.131 11.3594 166.037 11.4531C165.943 11.5469 165.833 11.5938 165.708 11.5938H154.147L154.116 13.7188H165.833C166.167 13.7188 166.334 13.8854 166.334 14.2188C166.334 14.3438 166.282 14.4583 166.178 14.5625C166.073 14.6667 165.958 14.7188 165.833 14.7188H154.084V23.9375H168.997C169.123 23.9375 169.232 23.9948 169.326 24.1094C169.42 24.224 169.467 24.3438 169.467 24.4688Z" fill="black"/>
</svg>
