<svg width="23" height="30" viewBox="0 0 23 30" fill="none" xmlns="http://www.w3.org/2000/svg">
<path fill-rule="evenodd" clip-rule="evenodd" d="M19 15V7.5C19 3.35786 15.6421 0 11.5 0C7.35786 0 4 3.35786 4 7.5V15H0V30H23V15H19ZM1 29V16H22V29H1ZM5 15V7.5V7H5.01894C5.27426 3.64378 8.07839 1 11.5 1C14.9216 1 17.7257 3.64378 17.9811 7H18V7.5V15H5ZM12 23.95C13.1411 23.7184 14 22.7095 14 21.5C14 20.1193 12.8807 19 11.5 19C10.1193 19 9 20.1193 9 21.5C9 22.7095 9.85888 23.7184 11 23.95V26H12V23.95ZM13 21.5C13 22.3284 12.3284 23 11.5 23C10.6716 23 10 22.3284 10 21.5C10 20.6716 10.6716 20 11.5 20C12.3284 20 13 20.6716 13 21.5Z" fill="white"/>
</svg>
