<svg width="25" height="25" viewBox="0 0 25 25" fill="none" xmlns="http://www.w3.org/2000/svg">
<path fill-rule="evenodd" clip-rule="evenodd" d="M15.9318 15.2558L20 19.3241L19.3241 20L15.2558 15.9318C12.8148 18.0277 9.1325 17.9193 6.81981 15.6066C4.3934 13.1802 4.3934 9.24621 6.81981 6.81981C9.24621 4.3934 13.1802 4.3934 15.6066 6.81981C17.9193 9.1325 18.0277 12.8148 15.9318 15.2558ZM14.9307 14.9307C16.9838 12.8776 16.9838 9.54883 14.9307 7.49571C12.8776 5.4426 9.54883 5.4426 7.49571 7.49571C5.4426 9.54883 5.4426 12.8776 7.49571 14.9307C9.54883 16.9838 12.8776 16.9838 14.9307 14.9307Z" fill="black"/>
</svg>
