<svg width="34" height="30" viewBox="0 0 34 30" fill="none" xmlns="http://www.w3.org/2000/svg">
<path fill-rule="evenodd" clip-rule="evenodd" d="M17 4.82333C18.5225 2.20861 21.5873 0.5 25 0.5C29.9454 0.5 33.5 4.63465 33.5 9.47639C33.5 13.9245 30.7668 18.615 25.4196 23.4311C23.7081 24.9727 21.8657 26.3955 20.0152 27.6675C19.3651 28.1143 18.7594 28.5109 18.2133 28.8534C17.8806 29.062 17.6316 29.2121 17.5012 29.2878L17.2502 29.4329L17 29.5775L16.7498 29.4329L16.4955 29.2859C16.3589 29.2062 16.1287 29.0674 15.8059 28.8652C15.274 28.5321 14.6835 28.1462 14.049 27.7114C12.2423 26.4733 10.437 25.087 8.75004 23.5831C8.66535 23.5075 8.66521 23.5073 8.5808 23.4314L8.58038 23.4311C3.23315 18.615 0.5 13.9245 0.5 9.47639C0.5 4.63465 4.05457 0.5 9 0.5C12.4127 0.5 15.4775 2.20861 17 4.82333ZM32.5 9.47639C32.5 5.1562 29.3568 1.5 25 1.5C21.5894 1.5 18.5885 3.39032 17.4627 6.14015L17 7.27039L16.5373 6.14015C15.4115 3.39032 12.4106 1.5 9 1.5C4.64325 1.5 1.5 5.1562 1.5 9.47639C1.5 13.5936 4.09305 18.0437 9.24963 22.688C9.29115 22.7254 9.31188 22.744 9.33264 22.7626C9.35335 22.7812 9.37408 22.7997 9.4155 22.8367C11.068 24.3099 12.8405 25.6709 14.6143 26.8865C15.2371 27.3133 15.8161 27.6917 16.3367 28.0177C16.6506 28.2144 16.8743 28.3492 16.9992 28.422L17 28.4225C17 28.4225 17 28.4225 16.9999 28.4225L16.7498 28.5671L17 29L17.2502 28.5671L17 28.4225C17.1199 28.3529 17.3592 28.2086 17.682 28.0061C18.2166 27.671 18.8107 27.2819 19.4487 26.8434C21.2656 25.5946 23.0741 24.1978 24.7504 22.688C29.9069 18.0437 32.5 13.5936 32.5 9.47639Z" fill="white"/>
</svg>
