<?xml version="1.0" encoding="UTF-8"?>
<svg xmlns="http://www.w3.org/2000/svg" xmlns:xlink="http://www.w3.org/1999/xlink" width="15pt" height="15pt" viewBox="0 0 15 15" version="1.1">
<g id="surface1">
<path style=" stroke:none;fill-rule:evenodd;fill:rgb(0%,0%,0%);fill-opacity:1;" d="M 9.558594 9.152344 L 12 11.59375 L 11.59375 12 L 9.152344 9.558594 C 7.6875 10.816406 5.480469 10.75 4.09375 9.363281 C 2.636719 7.90625 2.636719 5.546875 4.09375 4.09375 C 5.546875 2.636719 7.90625 2.636719 9.363281 4.09375 C 10.75 5.480469 10.816406 7.6875 9.558594 9.152344 Z M 8.957031 8.957031 C 10.191406 7.726562 10.191406 5.730469 8.957031 4.496094 C 7.726562 3.265625 5.730469 3.265625 4.496094 4.496094 C 3.265625 5.730469 3.265625 7.726562 4.496094 8.957031 C 5.730469 10.191406 7.726562 10.191406 8.957031 8.957031 Z M 8.957031 8.957031 "/>
</g>
</svg>
