<svg width="28" height="28" viewBox="0 0 28 28" fill="none" xmlns="http://www.w3.org/2000/svg">
<path fill-rule="evenodd" clip-rule="evenodd" d="M13.6055 0C6.104 0 0 6.1023 0 13.6046C0 21.1069 6.10315 27.2092 13.6055 27.2092C21.1078 27.2092 27.2109 21.1069 27.2109 13.6046C27.2109 6.1023 21.1069 0 13.6055 0ZM13.6055 26.303C6.60376 26.303 0.907879 20.6063 0.907879 13.6046C0.907879 6.60291 6.60376 0.906182 13.6055 0.906182C20.6072 0.906182 26.303 6.60291 26.303 13.6046C26.303 20.6063 20.6072 26.303 13.6055 26.303ZM20.6419 8.97697C20.7352 8.80388 20.8133 8.62145 20.8735 8.43139C20.9304 8.25152 20.8718 8.05636 20.7242 7.93842C20.5774 7.82133 20.3721 7.80776 20.2109 7.90279C19.7756 8.16158 19.3072 8.35248 18.8143 8.47382C18.222 7.93842 17.444 7.63636 16.6404 7.63636C14.8544 7.63636 13.4018 9.08897 13.4018 10.8733C13.4018 10.9183 13.4026 10.9624 13.4043 11.0074C11.508 10.7707 9.75754 9.80679 8.53827 8.31091C8.44493 8.19551 8.30069 8.13527 8.15136 8.14545C8.00287 8.15733 7.86966 8.24049 7.79499 8.3703C7.5082 8.86242 7.35633 9.42497 7.35633 9.99855C7.35633 10.5416 7.49123 11.0642 7.73899 11.5275C7.6762 11.5377 7.61426 11.5606 7.55742 11.5937C7.41911 11.676 7.33342 11.8415 7.33342 12.0018C7.33342 12.9648 7.7619 13.849 8.45257 14.4497C8.44239 14.459 8.43305 14.4692 8.42287 14.4794C8.31681 14.5999 8.28202 14.7662 8.33123 14.9189C8.62905 15.8472 9.31887 16.5701 10.1843 16.9256C9.30105 17.3625 8.27523 17.5331 7.29439 17.4168C7.08736 17.3982 6.88626 17.5153 6.81414 17.7155C6.74372 17.9141 6.81839 18.1355 6.99657 18.2501C8.34736 19.1155 9.90772 19.5728 11.5097 19.5728C16.7533 19.5728 19.8876 15.3135 19.8876 11.1958C19.8876 11.1491 19.8876 11.1033 19.8867 11.0566C20.3933 10.6612 20.8328 10.1886 21.1943 9.64812C21.3063 9.48097 21.2944 9.25867 21.1646 9.10424C21.0364 8.95236 20.8252 8.89976 20.6419 8.97697ZM19.1613 10.4661C19.0366 10.556 18.9653 10.7028 18.9729 10.8572C18.978 10.9692 18.9806 11.0829 18.9806 11.1949C18.9806 14.8672 16.1865 18.6658 11.5105 18.6658C10.6714 18.6658 9.84408 18.525 9.06093 18.2518C9.99851 18.0727 10.8775 17.6731 11.6446 17.0724C11.7956 16.9536 11.8558 16.7533 11.7947 16.5709C11.7337 16.3893 11.5648 16.2655 11.3731 16.2621C10.6171 16.2468 9.93148 15.8709 9.51148 15.2761C9.72614 15.2617 9.93657 15.2261 10.1411 15.1709C10.3438 15.1158 10.4813 14.9282 10.4745 14.7178C10.4677 14.5082 10.3167 14.3301 10.1105 14.2885C9.25948 14.1179 8.59172 13.4884 8.34481 12.6721C8.57051 12.729 8.80214 12.7621 9.03378 12.7697C9.23317 12.7688 9.41814 12.6467 9.48008 12.4549C9.54202 12.2632 9.46905 12.0519 9.3002 11.9399C8.65111 11.5055 8.26336 10.7808 8.26336 9.99939C8.26336 9.81018 8.28626 9.62352 8.33039 9.44109C9.79911 10.9472 11.7922 11.8567 13.9032 11.9628C14.0526 11.9636 14.1832 11.9102 14.274 11.8007C14.3648 11.6913 14.3996 11.5462 14.3674 11.407C14.3275 11.2348 14.3071 11.0558 14.3071 10.875C14.3071 9.58958 15.3533 8.54424 16.6387 8.54424C17.2811 8.54424 17.9013 8.81236 18.34 9.28073C18.4469 9.39527 18.6047 9.44533 18.7591 9.41564C18.8991 9.38764 19.0374 9.35539 19.174 9.31806C19.1129 9.36388 19.0493 9.4063 18.9823 9.44618C18.799 9.55564 18.7175 9.77964 18.7863 9.98158C18.855 10.1835 19.0612 10.3159 19.2691 10.2845C19.3208 10.2785 19.3717 10.2718 19.4235 10.265C19.3395 10.3345 19.2512 10.4016 19.1613 10.4661Z" fill="#999999"/>
</svg>
