<svg width="28" height="28" viewBox="0 0 28 28" fill="none" xmlns="http://www.w3.org/2000/svg">
<path fill-rule="evenodd" clip-rule="evenodd" d="M0 13.6046C0 6.1023 6.1023 0 13.6046 0C21.1069 0 27.2092 6.1023 27.2092 13.6046C27.2092 21.1069 21.1069 27.2092 13.6046 27.2092C6.1023 27.2092 0 21.1069 0 13.6046ZM0.906182 13.6046C0.906182 20.6063 6.60291 26.303 13.6046 26.303C20.6063 26.303 26.303 20.6063 26.303 13.6046C26.303 6.60291 20.6063 0.906182 13.6046 0.906182C6.60291 0.906182 0.906182 6.60291 0.906182 13.6046ZM14.8052 7.63636C15.0555 7.63636 15.2583 7.83915 15.2583 8.08945C15.2583 8.33976 15.0555 8.54339 14.8061 8.5417H13.4561C14.0441 9.06606 14.4107 9.77285 14.4107 10.5543C14.4107 11.5394 13.832 12.4082 12.953 12.9368C12.9352 12.9895 12.9088 13.0404 12.8707 13.0853C12.8528 13.1074 12.5033 13.541 12.5881 14.1341C12.6645 14.6669 13.0675 15.1845 13.787 15.6715C13.8651 15.7241 13.9135 15.7996 13.9457 15.8811C14.7509 16.4513 15.2583 17.2497 15.2583 18.1372C15.2583 19.8639 13.3585 21.2681 11.0227 21.2681C8.68764 21.2681 6.78788 19.8639 6.78788 18.1372C6.78788 16.4105 8.68764 15.0063 11.0227 15.0063C11.3604 15.0063 11.6845 15.0436 11.9993 15.0988C11.8448 14.823 11.7269 14.5396 11.687 14.2435C11.6446 13.927 11.6794 13.6436 11.743 13.3967C11.4987 13.4442 11.2475 13.4739 10.987 13.4739C9.1 13.4739 7.56424 12.1647 7.56424 10.5552C7.56424 8.94558 9.09915 7.63636 10.987 7.63636C11.0132 7.63636 11.0386 7.63958 11.064 7.64281C11.0857 7.64556 11.1073 7.64831 11.1296 7.64909C11.138 7.64775 11.1458 7.64547 11.1536 7.64321C11.1656 7.63977 11.1773 7.63636 11.1907 7.63636H14.8052ZM7.69406 18.1389C7.69406 19.365 9.18739 20.3636 11.0227 20.3636C12.8579 20.3636 14.3521 19.365 14.3521 18.1389C14.3521 16.9128 12.8579 15.9142 11.0227 15.9142C9.18739 15.9142 7.69406 16.9128 7.69406 18.1389ZM8.47042 10.556C8.47042 11.6658 9.59976 12.5686 10.987 12.5686C12.3743 12.5686 13.5036 11.6658 13.5036 10.556C13.5036 9.44618 12.3743 8.54339 10.987 8.54339C9.59976 8.54339 8.47042 9.44618 8.47042 10.556ZM19.4668 10.0758H21.4531C21.7034 10.0758 21.9062 10.2785 21.9062 10.5288C21.9062 10.7792 21.7034 10.9819 21.4531 10.9819H19.4668V12.9682C19.4668 13.2185 19.264 13.4213 19.0137 13.4213C18.7634 13.4213 18.5606 13.2185 18.5606 12.9682V10.9819H16.5743C16.324 10.9819 16.1212 10.7792 16.1212 10.5288C16.1212 10.2785 16.324 10.0758 16.5743 10.0758H18.5606V8.08945C18.5606 7.83915 18.7634 7.63636 19.0137 7.63636C19.264 7.63636 19.4668 7.83915 19.4668 8.08945V10.0758Z" fill="#999999"/>
</svg>
