<svg width="25" height="25" viewBox="0 0 25 25" fill="none" xmlns="http://www.w3.org/2000/svg">
<path fill-rule="evenodd" clip-rule="evenodd" d="M25 12.5C25 19.4036 19.4036 25 12.5 25C5.59644 25 0 19.4036 0 12.5C0 5.59644 5.59644 0 12.5 0C19.4036 0 25 5.59644 25 12.5ZM24 12.5C24 18.8513 18.8513 24 12.5 24C6.14873 24 1 18.8513 1 12.5C1 6.14873 6.14873 1 12.5 1C18.8513 1 24 6.14873 24 12.5ZM18.864 16.3891L19.5711 15.682L12.5 8.61091L11.7929 9.31802L18.864 16.3891ZM12.5 10.0251L6.13604 16.3891L5.42893 15.682L11.7929 9.31802L12.5 10.0251Z" fill="black"/>
</svg>
