<svg width="25" height="25" viewBox="0 0 25 25" fill="none" xmlns="http://www.w3.org/2000/svg">
<path fill-rule="evenodd" clip-rule="evenodd" d="M12.5 6.97152C13.3519 5.76682 14.8561 5 16.5139 5C19.1265 5 21 7.1707 21 9.70272C21 11.9964 19.5984 14.3924 16.874 16.8365C16.0075 17.6139 15.0757 18.3307 14.1397 18.9716C13.5742 19.3587 13.1219 19.6413 12.8638 19.7905L12.7378 19.8631L12.5 20L12.2622 19.8631L12.1332 19.7888C12.0628 19.7478 11.9458 19.6776 11.7819 19.5753C11.5125 19.4073 11.2137 19.2128 10.8927 18.9937C9.979 18.3699 9.06592 17.6716 8.21194 16.9132L8.12598 16.8365C5.40163 14.3924 4 11.9964 4 9.70272C4 7.1707 5.87349 5 8.48611 5C10.1439 5 11.6481 5.76682 12.5 6.97152ZM20.0556 9.70272C20.0556 7.65586 18.5685 5.93291 16.5139 5.93291C14.891 5.93291 13.4679 6.82587 12.9375 8.11615L12.5 9.18069L12.0625 8.11615C11.5321 6.82587 10.109 5.93291 8.48611 5.93291C6.43149 5.93291 4.94444 7.65586 4.94444 9.70272C4.94444 11.6898 6.21516 13.862 8.76096 16.1459L8.84335 16.2195C9.66491 16.949 10.5469 17.6236 11.4297 18.2262C11.7395 18.4377 12.0275 18.6252 12.2862 18.7866C12.3712 18.8396 12.4428 18.8835 12.5 18.9181C12.4525 18.9468 12.4147 18.9691 12.3873 18.985L12.2622 19.0571L12.5 19.4601L12.7378 19.0571L12.6119 18.9846C12.585 18.969 12.5475 18.9467 12.5 18.9181C12.5595 18.8822 12.6343 18.8363 12.7231 18.7808C12.9888 18.6149 13.2842 18.4222 13.6017 18.2048C14.5058 17.5858 15.4058 16.8935 16.239 16.1459C18.7848 13.862 20.0556 11.6898 20.0556 9.70272Z" fill="black"/>
</svg>
