<svg width="28" height="28" viewBox="0 0 28 28" fill="none" xmlns="http://www.w3.org/2000/svg">
<path fill-rule="evenodd" clip-rule="evenodd" d="M13.6046 0C6.1023 0 0 6.1023 0 13.6046C0 21.1069 6.1023 27.2092 13.6046 27.2092C21.1069 27.2092 27.2092 21.1069 27.2092 13.6046C27.2092 6.1023 21.1069 0 13.6046 0ZM13.6046 26.303C6.60291 26.303 0.906182 20.6063 0.906182 13.6046C0.906182 6.60291 6.60291 0.906182 13.6046 0.906182C20.6063 0.906182 26.303 6.60291 26.303 13.6046C26.303 20.6063 20.6063 26.303 13.6046 26.303ZM17.4194 10.1818H14.4794V7.24097C14.4794 6.99067 14.2766 6.78788 14.0263 6.78788H11.8381C11.609 6.78788 11.4164 6.95758 11.3884 7.18582C11.3078 7.83321 11.1627 8.36436 10.9582 8.76655C10.7579 9.16279 10.4864 9.50727 10.1521 9.79236C9.87976 10.024 9.41139 10.2522 8.79879 10.4499C8.61127 10.5102 8.48485 10.685 8.48485 10.8818V13.1804C8.48485 13.4307 8.68764 13.6335 8.93794 13.6335H10.1801V17.5662C10.1801 18.1593 10.2404 18.3324 10.3583 18.6107L10.4084 18.7312C10.4126 18.7422 10.8428 19.8113 11.3604 20.2576C11.7422 20.5851 12.2046 20.8396 12.7349 21.0144C13.2313 21.1765 13.6521 21.2707 14.3394 21.2707C14.9181 21.2707 15.4653 21.2121 15.9685 21.095C16.5463 20.9601 17.069 20.7777 17.6128 20.5206C17.7724 20.4459 17.8733 20.2864 17.8733 20.1108V18.0702C17.8733 17.9039 17.7825 17.7503 17.6358 17.6705C17.489 17.5908 17.3108 17.5993 17.1708 17.6909C16.5726 18.0838 16.2519 18.1542 15.6469 18.1542C15.3652 18.1542 15.1208 18.0965 14.8994 17.9752C14.8103 17.8131 14.6813 17.315 14.6321 17.119C14.588 16.9502 14.5507 16.8119 14.5252 16.7432C14.4785 16.6193 14.4785 16.1764 14.4794 15.6639L14.4802 13.6343H17.4202C17.6705 13.6343 17.8733 13.4315 17.8733 13.1812V10.6358C17.8725 10.3846 17.6697 10.1818 17.4194 10.1818ZM16.9663 12.7273H14.0263C13.776 12.7273 13.5732 12.9301 13.5732 13.1804L13.5715 15.6613C13.5707 16.3851 13.5707 16.783 13.675 17.0613C13.6945 17.1131 13.72 17.2175 13.7531 17.3447C13.9686 18.1839 14.1044 18.5615 14.3835 18.7252C14.7552 18.9475 15.1794 19.0604 15.6461 19.0604C16.1322 19.0604 16.5225 19.0179 16.9663 18.8321V19.8164C16.5718 19.9852 16.1823 20.1125 15.7615 20.2109C15.3262 20.3119 14.8485 20.3636 14.3385 20.3636C13.7667 20.3636 13.4442 20.2924 13.0166 20.1524C12.6008 20.0149 12.2411 19.8181 11.9501 19.5686C11.7193 19.3701 11.3952 18.7592 11.2501 18.3952L11.1941 18.2585C11.1135 18.0676 11.0863 18.0032 11.0863 17.5662V13.1804C11.0863 12.9301 10.8835 12.7273 10.6332 12.7273H9.39103V11.2051C9.97479 10.9921 10.427 10.7495 10.7393 10.4822C11.1669 10.119 11.5122 9.68036 11.7668 9.17721C11.973 8.77079 12.1282 8.27442 12.2292 7.69406H13.5732V10.6349C13.5732 10.8852 13.776 11.088 14.0263 11.088H16.9663V12.7273Z" fill="#999999"/>
</svg>
