<svg width="28" height="28" viewBox="0 0 28 28" fill="none" xmlns="http://www.w3.org/2000/svg">
<path fill-rule="evenodd" clip-rule="evenodd" d="M13.6055 0C6.104 0 0 6.1023 0 13.6046C0 21.1069 6.104 27.2092 13.6055 27.2092C21.1069 27.2092 27.2109 21.1069 27.2109 13.6046C27.2109 6.1023 21.1069 0 13.6055 0ZM13.6055 26.303C6.60376 26.303 0.907879 20.6063 0.907879 13.6046C0.907879 6.60291 6.60376 0.906182 13.6055 0.906182C20.6072 0.906182 26.303 6.60291 26.303 13.6046C26.303 20.6063 20.6072 26.303 13.6055 26.303ZM16.5752 5.93939H14.3114C11.4282 5.93939 11.0303 7.72461 11.0303 9.65491L11.0328 11.0303H9.78727C9.53697 11.0303 9.33333 11.2331 9.33333 11.4834V14.0288C9.33333 14.2792 9.53612 14.4819 9.78727 14.4819H11.0337V20.8167C11.0337 21.067 11.2365 21.2698 11.4876 21.2698H14.0798C14.3301 21.2698 14.5328 21.067 14.5337 20.8167L14.5345 14.4819H16.5752C16.8255 14.4819 17.0291 14.2792 17.0291 14.0288V11.4834C17.0291 11.2331 16.8263 11.0303 16.5752 11.0303H14.5337L14.5362 9.87467C14.5362 9.33249 14.5362 9.33249 15.0394 9.33249L16.5573 9.39103C16.6753 9.39442 16.8008 9.3503 16.8891 9.26461C16.9773 9.17891 17.0282 9.06182 17.0282 8.93794V6.39248C17.0291 6.14218 16.8255 5.93939 16.5752 5.93939ZM16.1212 8.46618L15.0572 8.42546C13.7395 8.42546 13.6292 9.14073 13.6292 9.87297L13.6258 11.4817C13.6258 11.6022 13.6733 11.7176 13.7582 11.8033C13.843 11.8881 13.9584 11.9356 14.0789 11.9356H16.1212V13.5749H14.0806C13.8303 13.5749 13.6275 13.7777 13.6267 14.028L13.6258 20.3628H11.9407V14.0288C11.9407 13.7785 11.7379 13.5758 11.4868 13.5758H10.2404V11.9365H11.4868C11.6073 11.9365 11.7227 11.889 11.8075 11.8041C11.8924 11.7184 11.9399 11.603 11.9399 11.4825L11.9373 9.65406C11.9373 7.75176 12.292 6.84558 14.3105 6.84558H16.1204V8.46618H16.1212Z" fill="#999999"/>
</svg>
